<?xml version="1.0" encoding="UTF-8" standalone="no"?>
<!-- Created with Inkscape (http://www.inkscape.org/) -->

<svg
   version="1.1"
   id="svg1"
   width="2016"
   height="2094"
   viewBox="0 0 2016 2094"
   xmlns="http://www.w3.org/2000/svg"
   xmlns:svg="http://www.w3.org/2000/svg">
  <defs
     id="defs1" />
  <g
     id="g1">
    <path
       style="fill:#000000"
       d="m 531,1559.9567 c -15.09221,-0.808 -20.5513,-1.7495 -31.54929,-5.4414 C 467.62213,1543.8308 445.43508,1520.1934 434.67,1485.5 l -3.10292,-10 -0.32027,-404.5 c -0.22929,-289.59863 -0.008,-406.89416 0.77745,-412.92843 3.01363,-23.13911 15.10687,-45.62707 32.47198,-60.38317 8.68662,-7.38151 15.58021,-11.64473 26.37822,-16.31317 14.58524,-6.30581 19.81764,-6.86921 63.82529,-6.87239 l 39.19975,-0.003 0.37865,33 c 0.37499,32.68163 0.40419,33.0721 3.02663,40.47377 1.45639,4.11057 4.72893,10.51933 7.2723,14.24169 C 616.26333,679.31888 632.56632,688 653,688 c 28.49296,0 51.75887,-18.58554 57.5841,-46 1.00166,-4.71395 1.38594,-14.96094 1.39854,-37.29196 L 712,573.91607 l 295.8841,0.17401 295.8841,0.17402 0.4838,32.61795 c 0.4694,31.65211 0.558,32.82696 2.9912,39.67646 4.5747,12.87795 9.7296,20.49901 19.2468,28.45445 10.7986,9.02659 21.9358,12.88704 37.3657,12.95191 13.6136,0.0572 23.8818,-3.41023 35.1328,-11.86402 9.3342,-7.0136 15.4108,-15.8201 20.0949,-29.12243 2.1612,-6.13743 2.3023,-8.22738 2.6806,-39.70659 l 0.3994,-33.22817 33.9065,-0.0156 c 47.7336,-0.022 57.7587,1.33023 75.4301,10.17417 25.6831,12.85351 43.2637,35.2678 50.8239,64.79778 l 2.1761,8.5 v 407 c 0,447.1062 0.5063,412.2204 -6.2475,430.4766 -11.8067,31.9145 -38.9636,55.2571 -73.7395,63.3825 l -9.013,2.1059 -475.5,0.1072 c -261.525,0.059 -481.575,-0.218 -489,-0.6155 z M 689.23828,1429.5001 688.97655,1349 H 585.48828 482 v 57.1057 c 0,48.857 0.22883,57.9931 1.58419,63.25 4.52754,17.5602 18.36696,32.5632 35.39272,38.3685 l 6.52309,2.2242 82,0.026 82,0.026 z M 900,1454 v -56 h 9 9 v 56 56 h 90 90 v -55.5 -55.5 l 9.25,0 9.25,-10e-5 -0.1966,55.5001 -0.1966,55.5 H 1212.0534 1308 v -80.5 -80.5 h -32.5375 -32.5376 l 0.2876,-9.0719 0.2875,-9.0719 32.25,0.026 32.25,0.025 V 1243.4537 1156 h -32.5 -32.5 v -9.5 -9.5 h 32.5 32.5 v -87 -87 h -32.5 -32.5 v -8.87151 -8.87151 l 11.75,-0.68974 c 6.4625,-0.37935 21.0875,-0.40695 32.5,-0.0613 l 20.75,0.6284 0,-85.06715 V 775 h -95.5 -95.5 v 58.53753 58.53752 l -8.9707,-0.28752 -8.9708,-0.28753 -0.2603,-58.25 -0.2604,-58.25 H 1008.2689 918 v 58.5 58.5 h -9 -9 l -0.1493,-37.75 c -0.0821,-20.7625 -0.27146,-46.975 -0.42076,-58.25 l -0.27145,-20.5 -95.58489,-0.25502 -95.5849,-0.25503 0.25565,84.60453 0.25565,84.60454 20,-0.12526 c 11,-0.0689 25.5125,0.17228 32.25,0.53592 L 773,945.27085 V 954.13543 963 H 740.5 708 v 87 87 h 32.5 32.5 v 9.5 9.5 H 740.5 708 v 87.526 87.526 l 31.25,-0.053 c 17.1875,-0.029 31.8125,-0.041 32.5,-0.026 0.90543,0.019 1.25,2.5075 1.25,9.0266 v 9 H 740.5 708 v 80.5 80.5 h 96 96 z m -96.97289,-308.9884 -0.0777,-227.9884 205.02532,-0.002 205.0253,-0.002 V 1145.01 1373 H 1008.0524 803.10485 Z M 1068,1362.607 c 0,-0.2162 -0.6984,-0.661 -1.5519,-0.9886 -0.89,-0.3415 -1.2914,-0.1738 -0.941,0.3931 0.5872,0.9502 2.4929,1.4054 2.4929,0.5955 z M 1177,1144.5 V 954 l -9.75,-0.0258 c -5.3625,-0.0142 -19.5558,-0.0275 -31.5408,-0.0295 -13.8298,-0.002 -21.5716,-0.35826 -21.191,-0.97419 0.8189,-1.32502 -0.8585,-1.23017 -2.2139,0.12518 -0.7609,0.76092 -8.3836,0.94669 -24.95,0.60804 -13.1199,-0.2682 -34.8793,-0.42375 -48.3543,-0.34567 -13.475,0.0781 -47.9,0.16103 -76.5,0.18434 -28.6,0.0233 -68.08068,0.13582 -87.73485,0.25 L 839.0303,954 l -0.0226,190.5 -0.0226,190.5 H 1007.9925 1177 Z M 844,952 c 0,-0.55 -0.45,-1 -1,-1 -0.55,0 -1,0.45 -1,1 0,0.55 0.45,1 1,1 0.55,0 1,-0.45 1,-1 z m 217.1221,-3.675 c -1.1789,-2.02721 -1.4635,-1.37835 -0.4986,1.13634 0.343,0.8937 0.8342,1.41426 1.0917,1.15679 0.2575,-0.25747 -0.01,-1.28938 -0.5931,-2.29313 z m 433.9464,560.0796 c 16.6504,-4.8907 31.2624,-19.1124 36.8897,-35.9046 2.492,-7.4362 2.6113,-11.3021 2.2918,-74.25 L 1534,1349 H 1430.5 1327 v 80.5 80.5 h 81.3185 c 71.5075,0 81.9738,-0.1925 86.75,-1.5954 z M 688.99993,1243.25 689,1156 H 585.5 482 v 87.3431 87.3432 l 103.49993,-0.093 103.49994,-0.093 z m 845.00007,0 0,-87.25 -50.75,-0.1297 c -27.9125,-0.071 -52.325,-0.1427 -54.25,-0.1585 -1.925,-0.016 -25.6625,0.043 -52.75,0.1297 L 1327,1156 v 86.8333 c 0,47.7584 0.2798,87.1131 0.6217,87.4551 0.342,0.3419 46.917,0.5294 103.5,0.4166 L 1534,1330.5 Z M 689,1050 V 963 H 585.5 482 v 87 87 H 585.5 689 Z m 845,1.5818 c 0,-46.98 0.2739,-86.13212 0.6088,-87.00466 0.5538,-1.44331 -8.7792,-1.56345 -103.453,-1.33178 l -104.0617,0.25464 -0.1512,38 c -0.083,20.9 -0.1043,59.9375 -0.047,86.75 L 1327,1137 H 1430.5 1534 Z M 689,861.42506 c 0.275,-45.69121 0.3545,-83.82871 0.17668,-84.75 C 688.87674,775.12119 681.37027,775 585.42668,775 H 482 l 4.2e-4,84.75 4.2e-4,84.75 H 585.25042 688.5 Z M 1534.1187,862.5 c 0.065,-45.1 0.1782,-83.125 0.2502,-84.5 L 1534.5,775.5 1430.75,775.24535 1327,774.9907 v 84.98397 84.98397 L 1430.4998,944.72932 1533.9995,944.5 Z M 643,667.52404 C 631.28309,663.74036 621.14906,654.35982 617.1069,643.55616 615.05262,638.06562 615,636.46503 615,579.47301 v -58.45197 l 2.61365,-6.52877 c 3.60886,-9.01478 9.59548,-15.36908 18.73384,-19.88443 6.52812,-3.22561 8.32708,-3.66703 15.27601,-3.74836 4.33208,-0.0507 9.9015,0.44695 12.3765,1.10589 13.92768,3.70809 24.79937,16.68362 27.05703,32.29299 1.26015,8.71267 1.19796,107.12409 -0.0719,113.8202 -2.24656,11.84609 -9.96735,21.89419 -20.81697,27.09193 -5.4561,2.61387 -8.12224,3.25015 -14.66813,3.50061 -5.06906,0.19396 -9.64866,-0.22629 -12.5,-1.14706 z m 710.0242,-0.12713 c -10.9175,-2.93382 -19.8746,-10.57884 -24.8638,-21.22176 L 1325.5,640.5 v -61 -61 l 2.9306,-5.97819 c 9.4102,-19.19633 31.6131,-27.20399 51.3202,-18.50907 6.8925,3.04105 14.4972,11.01486 18.3553,19.24621 L 1401.5,520.5 v 59.52061 59.52061 l -3.3989,6.90465 c -5.722,11.62375 -14.8115,18.86478 -26.9003,21.42975 -6.8611,1.45577 -11.4251,1.33557 -18.1766,-0.47871 z"
       id="path1" />
  </g>
</svg>
