<?xml version="1.0" encoding="UTF-8" standalone="no"?>
<!-- Created with Inkscape (http://www.inkscape.org/) -->

<svg
   version="1.1"
   id="svg1"
   width="3620"
   height="1152"
   viewBox="0 0 3620 1152"
   xmlns="http://www.w3.org/2000/svg"
   xmlns:svg="http://www.w3.org/2000/svg">
  <defs
     id="defs1" />
  <g
     id="g1">
    <path
       style="fill:#000000"
       d="m 545.5,1053 c -169.11081,-0.3629 -233.68551,-0.8077 -235.5,-1.6221 -1.375,-0.6172 -4.3,-1.6741 -6.5,-2.3488 -11.43796,-3.5078 -26.76665,-12.9826 -35.5,-21.9429 -5.72216,-5.8708 -10.94083,-12.4011 -12.256,-15.3362 -0.67772,-1.5125 -1.51897,-2.75 -1.86944,-2.75 -0.94886,0 -7.8515,-16.48341 -9.37153,-22.37908 -0.72616,-2.8165 -1.81552,-9.24163 -2.42081,-14.27805 -1.27691,-10.62485 -1.35097,-678.69134 -0.078,-703.84287 1.07058,-21.15286 4.12387,-31.46195 13.4309,-45.3478 10.06638,-15.0188 23.62568,-25.87405 40.54266,-32.45749 12.38644,-4.82033 16.00255,-5.04508 76.65913,-4.76468 l 15.13688,0.07 0.50088,31.25 c 0.53611,33.44804 0.91134,36.30375 6.11648,46.54894 1.48069,2.91442 5.71092,8.362 9.40052,12.10573 11.61339,11.78378 25.02394,16.52036 42.25586,14.92467 22.73845,-2.10558 41.45766,-19.78385 44.96725,-42.46666 0.67222,-4.34468 0.9832,-17.94178 0.79478,-34.75084 L 491.5,185.99833 522,185.92666 c 16.775,-0.0394 140.3,-0.0847 274.5,-0.10057 l 244,-0.0289 0.1616,30.28417 c 0.089,16.6563 0.4181,31.56719 0.7317,33.13531 1.7612,8.80581 9.6134,23.05921 15.3058,27.78333 10.7339,8.90796 20.0461,13.25763 31.0234,14.49091 8.6263,0.96914 19.4402,-0.9299 27.2752,-4.78982 7.9013,-3.89258 19.1849,-14.75933 23.7366,-22.85967 5.5347,-9.84977 6.2657,-15.49691 6.2657,-48.40347 V 186 l 4.25,-0.12171 c 2.3375,-0.0669 18.9239,-0.0741 36.8587,-0.016 35.783,0.11604 40.9723,0.70081 54.5828,6.15069 20.6342,8.26234 38.508,27.07186 45.5999,47.98699 6.0836,17.94176 5.656,-10.10791 5.734,376.14408 0.039,195.05425 -0.2089,357.05425 -0.5518,360 -0.3429,2.94576 -1.0042,6.25592 -1.4696,7.35592 -0.4654,1.1 -1.885,5.4875 -3.1547,9.75 -1.2696,4.2625 -2.6551,7.75 -3.0789,7.75 -0.4237,0 -0.7704,0.9 -0.7704,2 0,1.1 -0.45,2 -1,2 -0.55,0 -1,0.4814 -1,1.0698 0,0.5884 -1.35,3.032 -3,5.4302 -1.65,2.3982 -3,4.6364 -3,4.9737 0,0.7782 -6.1495,7.5559 -12,13.226 -6.8836,6.6713 -24.6546,16.9757 -32.5347,18.8651 -1.6309,0.391 -3.4153,1.0265 -3.9653,1.4121 -4.191,2.9384 -17.3643,3.1275 -231.5,3.3242 -119.075,0.1094 -321.35,-0.026 -449.5,-0.3011 z M 851.7596,957.16682 852.01921,909 H 861.5096 871 v 48 48 h 84.41821 c 46.42999,0 85.12999,0.2731 85.99999,0.607 1.4329,0.5498 1.5818,-5.85025 1.5818,-68.00001 V 869 h -30.0362 -30.03622 l 0.28621,-9.75 0.28621,-9.75 h 29.5 29.5 l 0.2565,-73.13168 0.2564,-73.13168 -2.1844,-0.57124 c -1.2015,-0.31419 -14.7045,-0.47993 -30.0068,-0.36832 l -27.82234,0.20292 3.2e-4,-9.75583 3.2e-4,-9.75583 29.75,0.10278 29.75,0.10278 0.2565,-73.09695 0.2565,-73.09695 -14.7565,-0.0586 c -8.1161,-0.0322 -21.619,-0.0484 -30.0065,-0.036 l -15.25,0.0226 v -9.751 -9.75101 l 28.25,0.28438 c 15.5375,0.15641 29.1618,0.0773 30.2763,-0.17592 1.909,-0.43367 2.0145,-1.14252 1.823,-12.2474 -0.1117,-6.48291 -0.2361,-39.5746 -0.2763,-73.5371 L 1043,370 l -84.91821,0 c -46.70502,0 -85.63002,0.27314 -86.5,0.60699 C 870.16729,371.14978 870,376.74743 870,423.53352 v 52.31953 l -8.75,0.32883 c -4.8125,0.18086 -8.87785,0.27357 -9.03412,0.20602 -0.15626,-0.0675 -0.26144,-23.75649 -0.23373,-52.64212 0.0442,-46.11016 -0.13519,-52.59053 -1.47032,-53.10287 -0.8364,-0.32095 -39.31872,-0.58971 -85.51627,-0.59724 L 681,370.03197 V 423.01599 476 h -8.5 c -4.675,0 -8.8375,0.1125 -9.25,0.25 -0.4125,0.1375 -0.975,-23.6 -1.25,-52.75 l -0.5,-53 -85.75,-0.13864 -85.75,-0.13864 -0.0266,9.63864 c -0.16354,59.33758 0.19474,136.64019 0.63534,137.08096 0.3066,0.30672 13.90756,0.62046 30.22435,0.6972 L 550.5,517.77904 v 9.19221 9.19221 l -30,0.2191 -30,0.2191 -0.25649,73.19917 L 489.98702,683 h 29.92316 c 18.58873,0 30.04941,0.37014 30.25649,0.97718 0.18333,0.53744 0.18889,5.03744 0.0124,10 L 549.85806,703 H 519.92903 490 l -0.1443,56.25 c -0.0794,30.9375 -0.26754,63.5587 -0.41818,72.49155 -0.16198,9.60586 0.11807,16.48379 0.68545,16.83445 0.52763,0.3261 14.21581,0.53684 30.41818,0.46833 L 550,848.91975 v 9.04013 c 0,4.97206 0.001,9.37762 0.002,9.79012 0.001,0.4125 -13.16116,0.86835 -29.25,1.01299 -16.08884,0.14464 -29.75303,0.44426 -30.36485,0.66582 -0.79912,0.28938 -1.1641,19.43677 -1.29595,67.98701 L 488.90811,1005 H 575.45406 662 v -47.91467 -47.91468 l 6.25,-0.33532 c 3.4375,-0.18443 7.7125,-0.19432 9.5,-0.022 l 3.25,0.31336 v 47.93096 47.93092 l 84.25,0.2557 c 46.3375,0.1406 84.7,0.2183 85.25,0.1725 0.64777,-0.054 1.09144,-17.04875 1.2596,-48.24998 z M 588,886.22468 573.5,885.94935 V 691.72468 497.5 h 193.45154 193.45154 l 0.0485,194.24999 0.0485,194.24999 -72.5,0.0283 c -39.875,0.0155 -120.425,0.12805 -179,0.25 -58.575,0.12196 -113.025,0.0978 -121,-0.0536 z M 926.25,853.07697 C 927.90913,853.004 928,844.61354 928,691.5 c 0,-128.53165 -0.25517,-161.50064 -1.25,-161.50315 -115.3949,-0.29096 -319.35947,0.21262 -319.93676,0.78991 -1.05592,1.05592 -1.09135,320.33513 -0.0357,321.39082 0.6573,0.6573 302.65653,1.76135 314.40149,1.14939 1.82651,-0.0952 4.10843,-0.20767 5.07093,-0.25 z m 30.51166,-352.76405 c -0.95609,-0.25029 -2.75609,-0.25937 -4,-0.0202 -1.24391,0.23919 -0.46166,0.44398 1.73834,0.45508 2.2,0.0111 3.21775,-0.18461 2.26166,-0.4349 z M 471,937 v -68 l -2.25,-0.0178 c -27.34747,-0.21635 -178.17364,0.16159 -178.63646,0.44763 -0.35652,0.22034 -0.75395,20.4188 -0.88317,44.88546 -0.29263,55.40606 0.20982,59.01245 10.13483,72.74319 4.00829,5.54527 14.13812,13.94152 16.82003,13.94152 0.77813,0 1.84227,0.4102 2.36477,0.9116 2.57272,2.4689 13.7691,2.88 81.2,2.9813 L 471,1005 Z m 737.8072,66.864 c 2.581,-0.6247 5.1203,-1.5247 5.6428,-2 0.5225,-0.4752 1.5664,-0.864 2.3198,-0.864 1.7359,0 9.8847,-5.5776 13.3944,-9.16801 3.0608,-3.13112 7.8827,-10.15789 9.4919,-13.83199 0.6022,-1.375 1.7122,-3.85 2.4668,-5.5 1.0904,-2.38439 1.4358,-13.31139 1.6833,-53.25 l 0.3115,-50.25 h -91.2081 -91.2081 l 0.632,67.75 c 0.3476,37.2625 0.6397,67.8625 0.6492,68 0.01,0.1375 31.768,0.25 70.5745,0.25 49.2472,0 71.9745,-0.3431 75.25,-1.136 z M 471,776.37197 v -73.1471 l -13.75,-0.59736 c -7.5625,-0.32855 -48.175,-0.4687 -90.25,-0.31145 l -76.5,0.2859 -0.5,30.44902 c -0.54088,32.93849 -0.25372,114.7308 0.40654,115.79568 0.22279,0.35934 40.94747,0.65763 90.49927,0.66287 l 90.09419,0.01 z m 772.7565,-0.46138 c 0.2041,-58.01945 -10e-5,-72.90054 -1,-72.8614 -0.6911,0.0271 -40.7308,-0.23247 -88.9771,-0.57672 -48.2463,-0.34425 -88.5582,-0.36006 -89.582,-0.0351 -1.7902,0.5682 -1.8688,3.3626 -2.0566,73.12814 -0.1074,39.89555 0.029,72.90067 0.3037,73.34473 0.2744,0.44405 41.1242,0.60568 90.7772,0.35917 l 90.2783,-0.4482 z M 470.75649,610.21501 c 0.24268,-69.27204 0.16189,-73.21339 -1.5,-73.18492 -0.96607,0.0166 -41.58149,-0.096 -90.25649,-0.25 L 290.5,536.5 l -0.25649,73.23417 -0.25648,73.23417 27.75648,0.26583 c 15.26607,0.14621 55.88149,0.25008 90.25649,0.23084 l 62.5,-0.035 z m 771.83621,72.35685 c 0.7749,-0.27542 1.1351,-21.47456 1.2382,-72.87767 0.1303,-64.93522 -0.018,-72.55185 -1.4194,-73.08978 -0.8607,-0.33029 -25.9429,-0.37399 -55.7382,-0.0971 -29.7953,0.27687 -70.0358,0.50099 -89.4233,0.49805 L 1062,537 v 72.91667 c 0,47.60073 0.3463,73.03239 0.9975,73.25 1.3972,0.46688 178.2562,-0.11886 179.5952,-0.59481 z M 469.25649,517.08334 c 1.66102,-0.0788 1.74255,-4.06456 1.5,-73.33334 L 470.5,370.5 383.16092,370.24449 c -48.03649,-0.14053 -88.73058,0.10507 -90.43131,0.54577 l -3.09223,0.80128 0.19772,72.32628 c 0.10875,39.77945 0.37236,72.60885 0.5858,72.95423 0.29046,0.47 169.17718,0.66953 178.83559,0.21129 z M 1243.5,443.85531 V 370.5 h -90.5 -90.5 l -0.2587,72.5 c -0.1423,39.875 -0.087,72.95 0.1229,73.5 0.2511,0.65796 31.2947,0.95051 90.7587,0.85531 L 1243.5,517.21063 Z M 2048,845.36067 c -14.1669,-2.07954 -17.5542,-2.63612 -18.6857,-3.07029 -1.8079,-0.69379 -1.6539,-4.87474 0.7334,-19.90123 1.1263,-7.08903 2.5148,-16.03915 3.0856,-19.88915 0.5707,-3.85 1.2266,-7.18985 1.4574,-7.42189 0.2309,-0.23204 3.2818,0.10546 6.7798,0.75 25.6903,4.73362 37.8403,-2.88338 46.9165,-29.4125 l 3.1798,-9.29436 -13.6191,-40.31063 c -7.4905,-22.17084 -16.8415,-49.53562 -20.78,-60.81062 -11.9763,-34.28507 -18.0353,-51.88361 -22.5507,-65.5 -3.6413,-10.98068 -13.5701,-39.97606 -27.394,-80 -1.7097,-4.95 -3.1117,-9.3375 -3.1157,-9.75 -0,-0.4125 13.8759,-0.75 30.8443,-0.75 h 30.8516 l 1.7394,6.75 c 2.695,10.45851 23.3596,79.63168 29.4052,98.43175 2.243,6.97496 6.993,22.72496 10.5556,35 9.8378,33.89613 13.117,44.15838 14.2287,44.52895 1.0619,0.35396 3.5058,-7.15987 13.8917,-42.7107 3.4546,-11.825 7.8557,-26.675 9.7801,-33 3.0528,-10.03327 6.5961,-21.99102 18.2239,-61.5 2.8764,-9.77368 4.0054,-13.74138 5.3349,-18.75 0.4745,-1.7875 2.561,-8.9875 4.6366,-16 l 3.7739,-12.75 h 30.3634 c 16.6999,0 30.3634,0.39138 30.3634,0.86973 0,1.00556 -0.3066,1.9364 -14.8645,45.13027 -6.0245,17.875 -11.9416,35.2 -13.1492,38.5 -1.2075,3.3 -3.4443,10.05 -4.9707,15 -1.5265,4.95 -7.8245,23.625 -13.9957,41.5 -6.1712,17.875 -14.2981,41.725 -18.0596,53 -3.7616,11.275 -10.2679,30.4 -14.4585,42.5 -4.1905,12.1 -8.4396,24.475 -9.4424,27.5 -5.3108,16.02069 -11.5264,32.27886 -14.7163,38.49345 -12.4957,24.344 -31.7694,38.97533 -55.9451,42.46986 -6.5432,0.94579 -25.0167,1.18727 -30.398,0.39736 z m 304,-85.94359 c -17.8544,-2.06099 -27.0372,-4.18493 -39.5,-9.13616 -17.8348,-7.08546 -34.0597,-20.77032 -42.2978,-35.676 -4.7738,-8.63768 -10.1373,-23.59244 -10.4798,-29.22029 l -0.2224,-3.65585 5.5,-0.31707 c 3.025,-0.17438 12.925,-0.7936 22,-1.37604 9.075,-0.58244 19.3585,-1.16624 22.8522,-1.29733 l 6.3523,-0.23834 1.7404,5.59106 c 3.2551,10.45738 12.0368,20.38968 22.3353,25.26164 19.1326,9.05117 50.1179,4.65875 61.3567,-8.69779 8.6996,-10.33885 8.6174,-25.59482 -0.184,-34.14875 -8.0747,-7.84776 -19.7525,-12.18004 -44.6602,-16.56819 -32.1078,-5.65664 -50.6311,-12.03672 -65.454,-22.54466 -16.9843,-12.04019 -25.304,-29.4309 -25.304,-52.89331 0,-13.24459 1.979,-22.09692 7.3773,-33 5.1826,-10.46741 11.6878,-18.14363 21.8412,-25.77304 12.1976,-9.16545 22.3852,-13.42779 40.2468,-16.83865 15.4494,-2.95024 42.7118,-3.00018 57,-0.10442 26.2316,5.31629 45.886,17.82114 58.3709,37.13765 3.922,6.06807 9.7076,21.84336 10.2978,28.07846 l 0.3313,3.5 -20,1.77221 c -11,0.97471 -22.9006,1.87471 -26.4457,2 l -6.4458,0.22779 -3.1831,-6.5 c -8.0897,-16.51928 -23.7423,-24.09534 -46.9254,-22.71242 -15.6386,0.93287 -26.4931,6.61391 -31.7073,16.59489 -4.9847,9.54195 -3.4109,20.60968 3.8657,27.18539 7.816,7.0631 15.8519,9.82429 46.3416,15.92341 40.647,8.13096 58.6791,15.51741 71.8316,29.42414 9.4393,9.98071 14.4539,19.72098 16.7755,32.58459 4.4698,24.76693 -2.011,47.79017 -18.3188,65.07727 -14.6911,15.57333 -33.992,25.01355 -58.9139,28.81529 -7.8468,1.19699 -30.8571,2.16139 -36.3744,1.52452 z m 276.5316,-0.45068 c -34.7755,-3.97325 -65.0576,-17.81932 -84.694,-38.72511 -8.1912,-8.72073 -13.1906,-15.99528 -19.1507,-27.86633 -10.6676,-21.24697 -13.9227,-40.14722 -13.154,-76.37496 0.2393,-11.275 0.4423,-63.3625 0.4511,-115.75 L 2512,405 h 30 30 l 0,113.25 c 0,96.8553 0.2256,114.62527 1.5347,122.75 3.0767,19.09601 8.3917,30.02609 20.4854,42.1273 9.6083,9.61428 17.2301,13.98016 31.4759,18.02989 11.4398,3.25206 33.3898,3.24436 44.9434,-0.0158 12.912,-3.64343 22.9426,-9.39935 31.7031,-18.19235 9.2587,-9.29311 14.0258,-18.40054 17.1346,-32.73536 2.074,-9.56318 2.1072,-11.53841 2.1433,-127.46371 L 2721.461,405 h 30.7946 30.7945 l -0.075,116.25 c -0.042,64.49134 -0.4954,120.70236 -1.019,126.25 -3.2545,34.47991 -16.5539,62.03659 -38.956,80.71831 -16.0907,13.41847 -31.306,20.98937 -53.8397,26.78998 -14.6153,3.76224 -44.9881,5.74511 -60.6287,3.95811 z m -796.1714,-1.44273 c -9.1886,-1.66768 -13.2738,-3.01849 -21.8533,-7.22598 -15.9256,-7.81019 -27.4103,-20.11662 -33.4073,-35.79769 -1.262,-3.3 -2.6609,-6.9 -3.1087,-8 -4.4338,-10.89157 -3.6802,-36.53109 1.5282,-52 9.8149,-29.14978 35.7975,-44.74233 83.9809,-50.39826 29.6914,-3.48527 35.6231,-4.37451 41.4293,-6.21072 12.3661,-3.91084 16.2603,-6.95538 18.9177,-14.79024 2.2243,-6.55785 1.0119,-14.18985 -3.5903,-22.60078 -4.2923,-7.84452 -9.6587,-12.30116 -18.8519,-15.65602 -4.7906,-1.74824 -8.2635,-2.17268 -18.4048,-2.24941 -11.0479,-0.0836 -13.197,0.18729 -18.5,2.3317 -11.9099,4.81611 -19.2383,11.59312 -24.4389,22.6003 -2.6123,5.52881 -3.1484,6.0765 -5.7217,5.84505 -1.5617,-0.14046 -8.4644,-0.93124 -15.3394,-1.75728 -6.875,-0.82605 -17.7875,-2.03092 -24.25,-2.6775 -13.5042,-1.3511 -12.9774,-0.71893 -9.6502,-11.5815 5.244,-17.12014 16.6848,-32.44789 32.1895,-43.12583 9.0921,-6.26159 13.7145,-8.59806 23.0194,-11.63549 16.7515,-5.46824 35.3288,-7.32783 56.3417,-5.63982 42.7108,3.43105 70.7686,22.46534 81.141,55.0458 4.6327,14.55143 4.7086,16.35759 4.7086,112 v 90.5 l -27.7252,0.26578 -27.7251,0.26577 -0.2749,-16.26577 L 1922.5,722.5 l -4.2137,6.14165 c -10.2724,14.97259 -29.8014,26.47406 -49.7863,29.32141 -9.5124,1.35527 -27.4534,1.13714 -36.1398,-0.43939 z m 49.2739,-44.99981 c 10.7316,-2.53077 17.0118,-5.96045 24.2757,-13.25722 12.247,-12.3023 15.0902,-21.23928 15.0902,-47.43206 0,-16.74716 -0.1279,-18.02825 -1.75,-17.52614 -0.9625,0.29793 -4.9239,1.68516 -8.8031,3.08273 -7.2513,2.61243 -19.9932,5.07973 -31.4469,6.08928 -10.8204,0.95374 -24.7635,4.21772 -31.3116,7.32987 -8.0826,3.84144 -13.5549,8.71327 -17.2203,15.33088 -2.6887,4.85436 -2.9639,6.20599 -2.9234,14.3588 0.035,6.99718 0.5199,10.03917 2.1801,13.66967 4.2162,9.2205 11.7998,15.48455 22.2752,18.39936 6.2011,1.72546 22.2295,1.70103 29.6341,-0.0452 z M 3174.5,758.26636 c -2.2,-0.21858 -7.9971,-1.51655 -12.8825,-2.88436 -25.4356,-7.12156 -39.9372,-21.39314 -46.8708,-46.12768 -2.1304,-7.59976 -2.1805,-9.28409 -2.5116,-84.50432 L 3111.8972,548 H 3093.9486 3076 v -23.97744 -23.97744 l 18.25,-0.27256 18.25,-0.27256 0.2637,-32.76531 0.2637,-32.76532 28.6781,0.26532 28.6782,0.26531 0.058,32.5 0.058,32.5 25.25,0.26717 25.25,0.26717 V 524 547.96566 l -25.25,0.26717 -25.25,0.26717 -0.2829,64.5 c -0.1869,42.6241 0.082,66.70455 0.792,71 1.4212,8.59381 5.1717,16.13765 9.7656,19.6424 3.4714,2.64842 4.4707,2.86764 14.6633,3.21691 6.3592,0.21791 13.1942,-0.1301 16.3276,-0.83133 2.9643,-0.66338 5.6007,-0.99498 5.8588,-0.7369 0.8002,0.80017 8.4366,45.10749 7.9796,46.29841 -0.5868,1.52926 -11.8884,4.27117 -24.604,5.96926 -10.0852,1.34682 -17.9523,1.55689 -26.5,0.70761 z M 1460.6667,754.33333 C 1460.3,753.96667 1460,675.17976 1460,579.25132 V 404.83597 l 69.75,0.4373 c 59.0486,0.3702 71.2843,0.69352 79.75,2.10734 41.4132,6.91616 75.1398,27.3185 96.6946,58.49385 16.4834,23.84023 27.496,59.74714 29.6868,96.79363 1.7006,28.75952 -0.9948,58.10577 -7.4702,81.33191 -4.6634,16.72713 -6.5171,21.29482 -14.6588,36.12157 -7.4274,13.52603 -17.6262,27.02801 -27.0622,35.82721 -6.3949,5.96329 -17.7784,15.02808 -18.8901,15.04228 -0.3849,0.005 -2.7548,1.39579 -5.2663,3.09083 -13.8691,9.36015 -40.8812,17.58292 -65.3979,19.90784 -11.6683,1.1065 -135.3948,1.41803 -136.4692,0.3436 z m 134.4084,-55.38526 c 11.6534,-2.09298 28.2124,-7.94729 34.2578,-12.11159 14.4038,-9.92182 22.7013,-19.02329 30.1703,-33.09324 11.0799,-20.87244 15.511,-42.10436 15.4785,-74.16731 -0.027,-26.84786 -3.0835,-44.39931 -11.1398,-63.97251 -11.1151,-27.00514 -31.6784,-45.10143 -59.8419,-52.66261 -7.9646,-2.1383 -10.8461,-2.30806 -45.75,-2.69535 l -37.25,-0.41332 -0.013,91.83393 c -0.01,50.50866 -0.082,101.73393 -0.1654,113.83393 -0.084,12.1 -0.078,25.0375 0.013,28.75 L 1521,701 h 31.3251 c 27.2108,0 32.8257,-0.26951 42.75,-2.05193 z m 1247.6327,55.26872 -10.7922,-0.28531 0.5872,-74.21574 c 0.6987,-88.31958 0.658,-155.21146 -0.099,-162.46574 -0.5414,-5.18818 -2.3327,-7.35518 -2.48,-3 -0.06,1.78418 -0.3551,1.5254 -1.4239,-1.25 -1.7447,-4.53051 -1.8904,-11.65122 -0.25,-12.21763 0.6875,-0.23738 12.5,-0.52466 26.25,-0.6384 25.6152,-0.21189 34.5662,0.77931 36.646,4.05808 0.4529,0.71387 0.8751,3.54795 0.9384,6.29795 0.1576,6.85284 1.1971,10.06036 3.1516,9.72463 0.8817,-0.15145 4.3493,-2.96252 7.7058,-6.24683 10.561,-10.33397 23.6268,-15.39793 43.9966,-17.05201 20.1403,-1.63545 38.4196,2.0112 56.3578,11.24316 19.2384,9.90111 29.0004,26.01231 35.3438,58.33105 1.5914,8.10759 1.8004,17.89933 2.1081,98.75 l 0.3415,89.75 h -29.0064 -29.0065 l -0.3292,-82.25 c -0.3262,-81.5389 -0.3485,-82.32349 -2.575,-90.75 -2.9661,-11.22515 -8.3196,-22.04395 -12.8969,-26.0629 -11.1465,-9.78671 -28.6741,-11.51531 -43.8996,-4.32942 -9.9381,4.69043 -19.4961,15.2162 -23.8079,26.21845 -4.1874,10.68512 -5.3665,21.51453 -6.1158,56.17387 -1.1713,54.17716 -2.0883,59.74651 -2.4698,15 -0.295,-34.60299 -0.4236,-37.33044 -1.0378,-22 -0.3856,9.625 -0.7559,42.1375 -0.8229,72.25 L 2889,754 l -12.25,0.14576 c -6.7375,0.0802 -14.725,0.19313 -17.75,0.25104 -3.025,0.0579 -10.3565,-0.0231 -16.2922,-0.18001 z m 54.0329,-224.37201 c 0.095,-2.37364 0.6417,-4.47226 1.2157,-4.66358 0.574,-0.19133 1.0436,-0.96 1.0436,-1.70816 0,-0.8368 -1.1686,-0.2929 -3.0367,1.41327 -2.5725,2.34961 -2.9928,3.39574 -2.75,6.84381 0.2327,3.30341 0.5758,3.91577 1.821,3.25032 0.9658,-0.51613 1.5981,-2.41902 1.7064,-5.13566 z m 6.2794,-4.36895 c 2.0191,-2.43297 0.3362,-2.88571 -2.1425,-0.57638 -1.7319,1.61346 -1.8916,2.10055 -0.6886,2.10055 0.8614,0 2.1353,-0.68587 2.8311,-1.52417 z m 362.6157,102.98927 c -0.3806,-69.61077 -0.4279,-126.99255 -0.1049,-127.51507 0.3489,-0.56464 12.329,-0.95003 29.5319,-0.95003 h 28.9448 l -0.2538,127.25 -0.2538,127.25 -28.586,0.26507 -28.586,0.26506 z m 115.977,125.81432 C 3381.2757,753.94241 3381,675.21667 3381,579.33333 V 405 h 29.5 29.5 v 175.02367 175.02368 l -28.8872,-0.0776 c -15.888,-0.0427 -29.163,-0.35332 -29.5,-0.69034 z M 2891.4476,721.5 c -4e-4,-18.15 0.1347,-25.71608 0.3003,-16.81351 0.1656,8.90257 0.1659,23.75257 7e-4,33 -0.1652,9.24743 -0.3007,1.96351 -0.301,-16.18649 z M 3289.5,461.94976 c -25.3615,-3.80608 -37.8127,-32.36758 -23.3661,-53.59872 11.6836,-17.17053 37.1601,-19.92153 52.8893,-5.71109 6.4229,5.80271 8.808,10.5259 11.0355,21.85368 3.2471,16.51317 -9.9991,34.8169 -26.7724,36.99425 -2.6325,0.34172 -5.6863,0.75427 -6.7863,0.91678 -1.1,0.16251 -4.25,-0.0422 -7,-0.4549 z M 433.5,274.04655 c -1.1,-0.46766 -4.23733,-1.64479 -6.97183,-2.61585 -6.46022,-2.2941 -13.77483,-9.20209 -17.26403,-16.30431 L 406.5,249.5 406.27507,192.09326 c -0.2325,-59.33926 -0.0608,-62.42739 3.9139,-70.38452 6.99553,-14.00474 26.81442,-21.45033 41.95812,-15.76289 10.5727,3.97072 18.80528,13.50919 21.49679,24.9067 1.72866,7.32018 1.90772,108.44287 0.20624,116.4726 -3.295,15.55002 -15.81596,26.07792 -32.31557,27.17166 -3.319,0.22002 -6.93455,0.0174 -8.03455,-0.45026 z m 647.1107,-1.51519 c -7.5066,-3.19481 -11.8656,-6.53956 -16.1323,-12.37874 -6.2673,-8.57697 -6.5357,-11.57496 -6.4437,-71.95371 0.049,-32.17121 0.4881,-55.58538 1.0951,-58.40453 1.3722,-6.37268 7.7263,-15.91129 13.0301,-19.5604 9.4991,-6.53553 23.9446,-7.92815 34.4013,-3.31644 5.6722,2.50158 12.5345,8.77465 15.9524,14.58246 4.8017,8.15939 5.024,11.75107 4.4864,72.5 l -0.5,56.5 -2.3936,4.5 c -6.7642,12.71697 -16.425,19.07375 -29.9211,19.68804 -6.4672,0.29436 -8.6188,-0.0475 -13.5746,-2.15668 z"
       id="path1" />
  </g>
</svg>
