<?xml version="1.0" encoding="UTF-8" standalone="no"?>
<!-- Created with Inkscape (http://www.inkscape.org/) -->

<svg
   version="1.1"
   id="svg1"
   width="2016"
   height="2094"
   viewBox="0 0 2016 2094"
   xmlns="http://www.w3.org/2000/svg"
   xmlns:svg="http://www.w3.org/2000/svg">
  <defs
     id="defs1" />
  <g
     id="g1">
    <path
       style="fill:#000000"
       d="m 475.26755,1517.9682 c -10.0124,-1.0525 -16.26515,-2.6651 -26.93642,-6.9468 -12.02869,-4.8264 -18.82779,-8.9932 -28.72193,-17.6019 -13.89663,-12.0912 -23.59176,-26.5596 -29.52609,-44.0627 -6.50316,-19.1809 -6.07155,12.0647 -6.06901,-439.3568 0.001,-265.69099 0.35318,-413.56209 0.99695,-419.18033 1.83407,-16.0062 6.22887,-28.87302 14.53472,-42.55388 13.79778,-22.72682 38.06024,-39.93327 63.95423,-45.35506 7.9477,-1.66412 13.70613,-1.88599 49.25,-1.89759 L 553,501 l 0.0172,5.75 c 0.009,3.1625 0.16499,19.25 0.34559,35.75 0.32195,29.41529 0.38072,30.1601 3.01506,38.21451 8.51822,26.04413 32.10785,43.31494 59.10202,43.27071 14.77923,-0.0242 26.86566,-4.05792 38.34976,-12.79877 5.14469,-3.91577 13.41362,-14.30433 16.66046,-20.93116 5.64,-11.51133 5.8013,-12.86687 6.24765,-52.50529 l 0.41383,-36.75 331.3684,0 331.3684,0 0.3425,37.25 c 0.3014,32.78267 0.5582,37.84964 2.1413,42.25 7.6137,21.16359 23.0096,36.57516 41.9779,42.02066 8.4015,2.41191 27.8365,1.6993 36.0821,-1.32299 9.1703,-3.36126 16.3414,-8.04597 24.1834,-15.7985 5.5766,-5.51295 8.077,-8.97906 11.1813,-15.5 6.6713,-14.01382 7.0849,-17.37633 7.1523,-58.14917 L 1463,501 h 39.8895 c 31.6483,0 41.5583,0.31654 47.9664,1.53214 29.954,5.68219 56.6029,26.3606 70.9697,55.06963 3.6715,7.33669 7.5863,20.96247 9.1647,31.89823 0.8623,5.97482 1.073,113.43589 0.8322,424.5 l -0.3225,416.5 -2.6623,9.6312 c -5.8047,20.9998 -13.0039,33.9442 -26.3377,47.3563 -17.5368,17.6398 -37.475,27.5228 -61.4738,30.4714 -9.9718,1.2252 -1054.10519,1.2343 -1065.75865,0.01 z m 180.89847,-85.7038 c 0.0913,-20.7704 0.13603,-39.1144 0.0994,-40.7644 -0.0367,-1.65 -0.11138,-20.4375 -0.16603,-41.75 L 656,1311 H 543.91198 431.82395 l 0.67696,55.1058 c 0.75016,61.0641 0.59745,59.6346 7.84031,73.3942 4.53546,8.6162 16.45773,20.2768 24.90928,24.3625 12.43225,6.01 11.15989,5.9366 104.9995,6.0566 l 85.75,0.1096 z M 885,1418.4793 V 1367 h 9 9 v 51.502 51.502 l 105,-0.013 105,-0.013 v -51.4167 -51.4167 l 5.25,-0.6549 c 2.8875,-0.3603 6.825,-0.5051 8.75,-0.322 l 3.5,0.333 0.259,51.75 0.259,51.75 H 1236.509 1342 v -79.5 -79.5 h -36 -36 v -9 -9 h 36 36 v -84.9874 -84.9873 l -35.75,-0.2627 -35.75,-0.2626 -0.2889,-8.75 -0.289,-8.75 h 35.9619 35.9618 l 0.081,-91.4875 0.081,-91.48754 -36.2421,-0.26248 c -35.5205,-0.25725 -36.2403,-0.3023 -36.156,-2.26248 0.047,-1.1 0.1546,-5.0375 0.2383,-8.75 L 1270,904 l 35.75,-4e-5 35.75,-4e-5 0.1894,-91.50454 0.1895,-91.50454 -105.1895,0.25458 L 1131.5,721.5 l -0.2574,63.75 -0.2574,63.75 -8.4926,0 H 1114 v -64.00457 -64.00456 l -105.5121,0.25456 -105.51202,0.25457 -0.3801,63.5 c -0.20905,34.925 -0.42862,63.6125 -0.48794,63.75 -0.0593,0.1375 -3.92951,0.25 -8.60044,0.25 h -8.4926 L 884.7574,785.25 884.5,721.5 779.24474,721.24541 673.98948,720.99083 674.24474,812.24541 674.5,903.5 l 35.75,0.26263 35.75,0.26263 v 4.3478 c 0,2.39129 0.28617,6.4356 0.63592,8.98737 L 747.27185,922 710.63592,922 H 674 v 91.5 91.5 h 36 36 l 0.14211,2.25 c 0.26197,4.1478 -0.23976,14.099 -0.7527,14.9289 -0.2791,0.4516 -16.45589,0.8211 -35.94843,0.8211 H 674 v 85 85 h 35.89411 35.89412 l 0.43171,8.25 c 0.23744,4.5375 0.24745,8.6054 0.0223,9.0398 -0.22521,0.4344 -16.00933,0.7525 -35.07583,0.7069 -19.0665,-0.046 -35.22886,-0.064 -35.91636,-0.04 -0.98916,0.034 -1.25,16.6341 -1.25,79.5499 v 79.5069 l 105.5,-0.027 105.5,-0.028 z m -106.69584,-80.2112 c -0.44229,-0.1474 -0.69113,-78.2305 -0.55298,-173.5181 0.13815,-95.2875 0.25065,-199.2375 0.25,-231 L 778,876 h 230 c 183.3012,0 230.0122,0.2538 230.0603,1.25 0.033,0.6875 0.025,104.28527 -0.017,230.2173 -0.053,156.0496 -0.4065,229.2961 -1.1104,230 -0.7041,0.7041 -73.6949,1.0384 -229.4285,1.0508 -125.61776,0.01 -228.75776,-0.1026 -229.20004,-0.25 z m 419.97554,-39.528 c 1.5273,-0.5091 0.9756,-381.95907 -0.5539,-382.93072 -0.6742,-0.42832 -86.6133,-0.78565 -190.9758,-0.79407 L 817,915 l -0.0262,96.25 c -0.0144,52.9375 -0.19358,139.3352 -0.39816,191.9949 l -0.37196,95.7449 93.64817,0.2551 c 105.43436,0.2872 287.00516,-0.031 288.42786,-0.5048 z m 337.2866,170.1684 c 16.7056,-3.0731 33.0156,-15.2658 41.3579,-30.9176 6.0073,-11.271 6.0758,-12.0847 6.0758,-72.201 V 1311 h -112.0378 -112.0377 l 0.1236,79.5 0.1235,79.5 h 85.2306 c 57.2941,0 87.1754,-0.3578 91.1641,-1.0915 z M 656.02315,1208 l -3e-5,-84.5 H 544.26156 432.5 l -0.31383,83.3625 c -0.17261,45.8493 -0.0735,83.9888 0.22027,84.7543 0.45272,1.1798 17.532,1.3531 112.07543,1.1375 L 656.02318,1292.5 Z M 1583,1208.0122 v -84.9879 l -77.25,-0.2621 c -42.4875,-0.1442 -92.775,-0.037 -111.75,0.2378 l -34.5,0.5 -0.2668,84.75 -0.2668,84.75 H 1470.9832 1583 Z M 656,1013.4957 v -91.50436 l -111.55395,0.25433 -111.55396,0.25433 -0.0368,90.5 c -0.0203,49.775 0.004,90.8375 0.0539,91.25 0.0499,0.4125 50.26576,0.75 111.59076,0.75 H 656 Z m 927,0 V 922 H 1471.5 1360 l -0.1401,35.75 c -0.2234,57.0305 -0.2408,109.2802 -0.043,129 L 1360,1105 H 1471.5 1583 Z M 656,812.5 V 721 H 544.5 433 l -0.0152,22.25 c -0.008,12.2375 -0.14177,53.20408 -0.2965,91.03684 -0.15472,37.83276 -0.0729,68.99526 0.18185,69.25 C 433.12491,903.79158 483.43333,904 544.66667,904 H 656 Z m 927,-0.004 v -91.50433 l -111.5271,0.25433 -111.5271,0.25433 -0.01,75.5 c -0,41.525 0.01,82.5875 0.027,91.25 L 1360,904 H 1471.5 1583 Z M 603.28604,601.60342 C 593.67379,598.47579 583.55836,589.93513 579.08802,581.17254 574.12716,571.44845 574,569.59284 574,506.92639 c 0,-35.43346 0.40142,-60.78584 1.01399,-64.0399 2.36059,-12.53996 10.54203,-23.0811 22.47298,-28.95469 6.66222,-3.2798 7.45912,-3.4318 17.992,-3.4318 9.88719,0 11.61447,0.27809 16.78928,2.70303 7.84612,3.67673 16.04831,12.08354 20.04239,20.54239 L 655.5,440.5 v 66 66 l -2.41249,6 c -2.9049,7.22464 -11.80875,16.52304 -20.08751,20.97762 -4.89094,2.63169 -6.60738,2.98917 -15.5,3.22817 -6.4545,0.17348 -11.49406,-0.21737 -14.21396,-1.10237 z M 1387,601.18964 c -10.954,-4.44395 -18.2996,-11.38223 -23.3618,-22.06626 L 1360.5,572.5 l -0.3048,-62 c -0.3238,-65.88147 -0.1056,-69.79658 4.3857,-78.65957 3.4008,-6.71119 11.8837,-14.96368 18.9191,-18.40532 5.5325,-2.70639 6.8589,-2.93511 17.0224,-2.93511 10.527,0 11.3345,0.15367 17.9672,3.4196 12.2406,6.02718 20.0496,16.1049 22.5027,29.04005 0.6057,3.19348 1.0077,28.91366 1.0077,64.46674 0,64.33328 -0.1158,65.87115 -5.6888,75.57361 -3.5549,6.18912 -10.9072,12.96262 -17.9235,16.51254 -5.2434,2.65293 -7.004,3.00087 -16.3813,3.23754 -8.3131,0.20982 -11.4458,-0.11593 -15.0064,-1.56044 z"
       id="path2" />
    <path
       style="fill:#000000"
       d="m 475.26755,1517.9682 c -10.0124,-1.0525 -16.26515,-2.6651 -26.93642,-6.9468 -12.02869,-4.8264 -18.82779,-8.9932 -28.72193,-17.6019 -13.89663,-12.0912 -23.59176,-26.5596 -29.52609,-44.0627 -6.50316,-19.1809 -6.07155,12.0647 -6.06901,-439.3568 0.001,-265.69099 0.35318,-413.56209 0.99695,-419.18033 1.83407,-16.0062 6.22887,-28.87302 14.53472,-42.55388 13.79778,-22.72682 38.06024,-39.93327 63.95423,-45.35506 7.9477,-1.66412 13.70613,-1.88599 49.25,-1.89759 L 553,501 l 0.0172,5.75 c 0.009,3.1625 0.16499,19.25 0.34559,35.75 0.32195,29.41529 0.38072,30.1601 3.01506,38.21451 8.51822,26.04413 32.10785,43.31494 59.10202,43.27071 14.77923,-0.0242 26.86566,-4.05792 38.34976,-12.79877 5.14469,-3.91577 13.41362,-14.30433 16.66046,-20.93116 5.64,-11.51133 5.8013,-12.86687 6.24765,-52.50529 l 0.41383,-36.75 331.3684,0 331.3684,0 0.3425,37.25 c 0.3014,32.78267 0.5582,37.84964 2.1413,42.25 7.6137,21.16359 23.0096,36.57516 41.9779,42.02066 8.4015,2.41191 27.8365,1.6993 36.0821,-1.32299 9.1703,-3.36126 16.3414,-8.04597 24.1834,-15.7985 5.5766,-5.51295 8.077,-8.97906 11.1813,-15.5 6.6713,-14.01382 7.0849,-17.37633 7.1523,-58.14917 L 1463,501 h 39.8895 c 31.6483,0 41.5583,0.31654 47.9664,1.53214 29.954,5.68219 56.6029,26.3606 70.9697,55.06963 3.6715,7.33669 7.5863,20.96247 9.1647,31.89823 0.8623,5.97482 1.073,113.43589 0.8322,424.5 l -0.3225,416.5 -2.6623,9.6312 c -5.8047,20.9998 -13.0039,33.9442 -26.3377,47.3563 -17.5368,17.6398 -37.475,27.5228 -61.4738,30.4714 -9.9718,1.2252 -1054.10519,1.2343 -1065.75865,0.01 z m 180.89847,-85.7038 c 0.0913,-20.7704 0.13603,-39.1144 0.0994,-40.7644 -0.0367,-1.65 -0.11138,-20.4375 -0.16603,-41.75 L 656,1311 H 543.91198 431.82395 l 0.67696,55.1058 c 0.75016,61.0641 0.59745,59.6346 7.84031,73.3942 4.53546,8.6162 16.45773,20.2768 24.90928,24.3625 12.43225,6.01 11.15989,5.9366 104.9995,6.0566 l 85.75,0.1096 z M 885,1418.4793 V 1367 h 9 9 v 51.502 51.502 l 105,-0.013 105,-0.013 v -51.4167 -51.4167 l 5.25,-0.6549 c 2.8875,-0.3603 6.825,-0.5051 8.75,-0.322 l 3.5,0.333 0.259,51.75 0.259,51.75 H 1236.509 1342 v -79.5 -79.5 h -36 -36 v -9 -9 h 36 36 v -84.9874 -84.9873 l -35.75,-0.2627 -35.75,-0.2626 -0.2889,-8.75 -0.289,-8.75 h 35.9619 35.9618 l 0.081,-91.4875 0.081,-91.48754 -36.2421,-0.26248 c -35.5205,-0.25725 -36.2403,-0.3023 -36.156,-2.26248 0.047,-1.1 0.1546,-5.0375 0.2383,-8.75 L 1270,904 l 35.75,-4e-5 35.75,-4e-5 0.1894,-91.50454 0.1895,-91.50454 -105.1895,0.25458 L 1131.5,721.5 l -0.2574,63.75 -0.2574,63.75 -8.4926,0 H 1114 v -64.00457 -64.00456 l -105.5121,0.25456 -105.51202,0.25457 -0.3801,63.5 c -0.20905,34.925 -0.42862,63.6125 -0.48794,63.75 -0.0593,0.1375 -3.92951,0.25 -8.60044,0.25 h -8.4926 L 884.7574,785.25 884.5,721.5 779.24474,721.24541 673.98948,720.99083 674.24474,812.24541 674.5,903.5 l 35.75,0.26263 35.75,0.26263 v 4.3478 c 0,2.39129 0.28617,6.4356 0.63592,8.98737 L 747.27185,922 710.63592,922 H 674 v 91.5 91.5 h 36 36 l 0.14211,2.25 c 0.26197,4.1478 -0.23976,14.099 -0.7527,14.9289 -0.2791,0.4516 -16.45589,0.8211 -35.94843,0.8211 H 674 v 85 85 h 35.89411 35.89412 l 0.43171,8.25 c 0.23744,4.5375 0.24745,8.6054 0.0223,9.0398 -0.22521,0.4344 -16.00933,0.7525 -35.07583,0.7069 -19.0665,-0.046 -35.22886,-0.064 -35.91636,-0.04 -0.98916,0.034 -1.25,16.6341 -1.25,79.5499 v 79.5069 l 105.5,-0.027 105.5,-0.028 z m -106.69584,-80.2112 c -0.44229,-0.1474 -0.69113,-78.2305 -0.55298,-173.5181 0.13815,-95.2875 0.25065,-199.2375 0.25,-231 L 778,876 h 230 c 183.3012,0 230.0122,0.2538 230.0603,1.25 0.033,0.6875 0.025,104.28527 -0.017,230.2173 -0.053,156.0496 -0.4065,229.2961 -1.1104,230 -0.7041,0.7041 -73.6949,1.0384 -229.4285,1.0508 -125.61776,0.01 -228.75776,-0.1026 -229.20004,-0.25 z m 419.97554,-39.528 c 1.5273,-0.5091 0.9756,-381.95907 -0.5539,-382.93072 -0.6742,-0.42832 -86.6133,-0.78565 -190.9758,-0.79407 L 817,915 l -0.0262,96.25 c -0.0144,52.9375 -0.19358,139.3352 -0.39816,191.9949 l -0.37196,95.7449 93.64817,0.2551 c 105.43436,0.2872 287.00516,-0.031 288.42786,-0.5048 z m 337.2866,170.1684 c 16.7056,-3.0731 33.0156,-15.2658 41.3579,-30.9176 6.0073,-11.271 6.0758,-12.0847 6.0758,-72.201 V 1311 h -112.0378 -112.0377 l 0.1236,79.5 0.1235,79.5 h 85.2306 c 57.2941,0 87.1754,-0.3578 91.1641,-1.0915 z M 656.02315,1208 l -3e-5,-84.5 H 544.26156 432.5 l -0.31383,83.3625 c -0.17261,45.8493 -0.0735,83.9888 0.22027,84.7543 0.45272,1.1798 17.532,1.3531 112.07543,1.1375 L 656.02318,1292.5 Z M 1583,1208.0122 v -84.9879 l -77.25,-0.2621 c -42.4875,-0.1442 -92.775,-0.037 -111.75,0.2378 l -34.5,0.5 -0.2668,84.75 -0.2668,84.75 H 1470.9832 1583 Z M 656,1013.4957 v -91.50436 l -111.55395,0.25433 -111.55396,0.25433 -0.0368,90.5 c -0.0203,49.775 0.004,90.8375 0.0539,91.25 0.0499,0.4125 50.26576,0.75 111.59076,0.75 H 656 Z m 927,0 V 922 H 1471.5 1360 l -0.1401,35.75 c -0.2234,57.0305 -0.2408,109.2802 -0.043,129 L 1360,1105 H 1471.5 1583 Z M 656,812.5 V 721 H 544.5 433 l -0.0152,22.25 c -0.008,12.2375 -0.14177,53.20408 -0.2965,91.03684 -0.15472,37.83276 -0.0729,68.99526 0.18185,69.25 C 433.12491,903.79158 483.43333,904 544.66667,904 H 656 Z m 927,-0.004 v -91.50433 l -111.5271,0.25433 -111.5271,0.25433 -0.01,75.5 c -0,41.525 0.01,82.5875 0.027,91.25 L 1360,904 H 1471.5 1583 Z M 603.28604,601.60342 C 593.67379,598.47579 583.55836,589.93513 579.08802,581.17254 574.12716,571.44845 574,569.59284 574,506.92639 c 0,-35.43346 0.40142,-60.78584 1.01399,-64.0399 2.36059,-12.53996 10.54203,-23.0811 22.47298,-28.95469 6.66222,-3.2798 7.45912,-3.4318 17.992,-3.4318 9.88719,0 11.61447,0.27809 16.78928,2.70303 7.84612,3.67673 16.04831,12.08354 20.04239,20.54239 L 655.5,440.5 v 66 66 l -2.41249,6 c -2.9049,7.22464 -11.80875,16.52304 -20.08751,20.97762 -4.89094,2.63169 -6.60738,2.98917 -15.5,3.22817 -6.4545,0.17348 -11.49406,-0.21737 -14.21396,-1.10237 z M 1387,601.18964 c -10.954,-4.44395 -18.2996,-11.38223 -23.3618,-22.06626 L 1360.5,572.5 l -0.3048,-62 c -0.3238,-65.88147 -0.1056,-69.79658 4.3857,-78.65957 3.4008,-6.71119 11.8837,-14.96368 18.9191,-18.40532 5.5325,-2.70639 6.8589,-2.93511 17.0224,-2.93511 10.527,0 11.3345,0.15367 17.9672,3.4196 12.2406,6.02718 20.0496,16.1049 22.5027,29.04005 0.6057,3.19348 1.0077,28.91366 1.0077,64.46674 0,64.33328 -0.1158,65.87115 -5.6888,75.57361 -3.5549,6.18912 -10.9072,12.96262 -17.9235,16.51254 -5.2434,2.65293 -7.004,3.00087 -16.3813,3.23754 -8.3131,0.20982 -11.4458,-0.11593 -15.0064,-1.56044 z"
       id="path1" />
  </g>
</svg>
