<?xml version="1.0" encoding="UTF-8" standalone="no"?>
<!-- Created with Inkscape (http://www.inkscape.org/) -->

<svg
   version="1.1"
   id="svg1"
   width="2016"
   height="2094"
   viewBox="0 0 2016 2094"
   xmlns="http://www.w3.org/2000/svg"
   xmlns:svg="http://www.w3.org/2000/svg">
  <defs
     id="defs1" />
  <g
     id="g1">
    <path
       style="fill:#000000"
       d="m 768,1384.0825 c 0,-0.9253 9.25447,-21.1613 20.07677,-43.9003 l 5.8625,-12.3179 -2.53767,-5.1821 c -2.99307,-6.1122 -11.49144,-25.2534 -17.19867,-38.7374 -2.22438,-5.2553 -5.17761,-12.0053 -6.56273,-15 -4.47282,-9.6703 -16.26864,-36.14 -21.14306,-47.4448 -2.60864,-6.05 -5.65103,-13.025 -6.76087,-15.5 -1.10984,-2.475 -2.83853,-6.4125 -3.84154,-8.75 l -1.82366,-4.25 h 18.79015 c 18.23575,0 18.84827,0.066 20.76002,2.25 2.6642,3.0431 3.67031,5.3334 17.02254,38.75 2.9668,7.425 5.81316,14.4 6.32525,15.5 2.00811,4.3135 8.94182,21.4002 11.66221,28.7392 1.57782,4.2565 3.09386,7.744 3.36899,7.75 0.27513,0.01 4.96959,-11.8017 10.43214,-26.2392 5.46255,-14.4375 10.30132,-26.925 10.75282,-27.75 0.45151,-0.825 2.86527,-6.9 5.36391,-13.5 6.29832,-16.6366 7.61114,-19.5353 10.28979,-22.7196 l 2.3389,-2.7804 h 16.9111 c 9.30111,0 16.91111,0.2032 16.91111,0.4516 0,0.2483 -1.52048,3.9608 -3.37885,8.25 -1.85836,4.2891 -5.94294,13.8734 -9.07684,21.2984 -3.13391,7.425 -8.55894,20.25 -12.05563,28.5 -3.49669,8.25 -10.16034,24 -14.80812,35 -4.64777,11 -11.01977,25.85 -14.15999,33 -3.14023,7.15 -7.66492,17.725 -10.05486,23.5 -10.08701,24.3739 -15.44185,35.6924 -18.33286,38.75 L 800.0599,1385 H 784.02995 C 774.97039,1385 768,1384.601 768,1384.0825 Z m -142.5,-47.7203 c -12.30128,-2.5917 -22.457,-9.4288 -28.01737,-18.8622 -3.53903,-6.0041 -5.04985,-15.8612 -3.68944,-24.071 2.6101,-15.7514 12.12121,-25.8994 31.4074,-33.5106 7.08967,-2.7979 24.9424,-6.6865 33.98663,-7.4028 7.88073,-0.6242 18.53865,-1.3836 20.56278,-1.4652 0.90153,-0.036 1.25,-2.5047 1.25,-8.8541 0,-10.8744 -2.72782,-17.3497 -9.19761,-21.8332 -3.98977,-2.765 -4.54568,-2.8631 -16.21689,-2.8631 H 643.5 l -11.71583,5.8864 c -9.93081,4.9895 -12.2704,5.7964 -15.35577,5.2957 -6.44307,-1.0456 -10.69713,-5.3492 -14.42994,-14.5982 -1.3525,-3.3512 -1.31087,-3.4748 2.18943,-6.5 5.39342,-4.6615 17.69838,-11.1365 27.31211,-14.3721 8.45728,-2.8464 24.0271,-4.5984 34.84498,-3.921 15.30584,0.9584 26.80309,5.6106 35.25166,14.2642 6.77754,6.942 10.97511,14.4506 13.41802,24.0023 1.85103,7.2375 1.98534,11.1595 1.98534,57.975 v 50.2124 l -11.6458,0.1471 c -8.82003,0.1114 -12.19671,-0.2138 -13.91624,-1.3405 -1.90503,-1.2482 -3.63307,-4.8112 -6.95929,-14.3491 -0.30916,-0.8865 -1.32944,-0.4008 -3.21928,1.5325 -6.99045,7.1511 -17.68402,12.4234 -29.96348,14.7732 -9.54388,1.8262 -16.62583,1.7862 -25.79591,-0.1457 z m 38.87259,-26.4165 c 3.41862,-1.3489 8.11965,-4.3708 11.25,-7.2317 L 681,1297.7993 v -12.3805 -12.3805 l -4.25,0.4474 c -2.3375,0.2461 -8.16778,0.6886 -12.95619,0.9834 -20.96642,1.2904 -35.79381,10.437 -35.79381,22.0801 0,7.0334 4.71146,13.2348 11.79136,15.5203 4.80484,1.551 18.20075,0.3936 24.58123,-2.1238 z M 936.5,1336.9281 c -13.24902,-1.7626 -30.28298,-8.1931 -37.99744,-14.3444 l -2.95686,-2.3577 3.8939,-7.6716 c 6.95734,-13.707 10.41591,-14.4787 27.0604,-6.038 9.88238,5.0115 11.82391,5.6382 19.1092,6.1683 17.53286,1.2757 28.65153,-7.1152 25.91828,-19.5596 -1.6212,-7.3813 -6.2462,-10.1307 -29.52748,-17.5529 -29.21801,-9.315 -38.20004,-16.7878 -41.07058,-34.1696 -3.66316,-22.1812 8.83518,-41.4511 31.53805,-48.6252 6.40174,-2.023 20.89887,-3.2989 29.95644,-2.6366 14.42598,1.0548 34.7302,8.8471 40.94389,15.7132 1.8039,1.9933 1.7629,2.1716 -1.9176,8.3414 -7.55047,12.6573 -9.29793,13.1441 -23.69883,6.6016 -8.51282,-3.8674 -10.05606,-4.2352 -19.33123,-4.6071 -8.6388,-0.3464 -10.64031,-0.1168 -14,1.6057 -8.70163,4.4612 -11.65073,11.8592 -7.4421,18.6689 2.83948,4.5943 5.81417,6.0538 26.52196,13.0125 26.15551,8.7893 34.01539,13.7306 39.4723,24.8152 5.3482,10.8637 5.091,25.5409 -0.6546,37.3471 -5.37659,11.0479 -17.42775,20.303 -30.8177,23.6674 -7.7902,1.9574 -26.09891,2.8056 -35,1.6214 z m 171.7988,0.011 c -19.2675,-2.5081 -37.297,-10.9467 -49.2066,-23.0308 -9.301,-9.4372 -14.3071,-18.1182 -18.7999,-32.6008 l -2.7323,-8.8075 -0.03,-67.5 -0.03,-67.5 19.25,-0.2716 19.25,-0.2716 0.071,61.2716 c 0.039,33.6994 0.2721,63.0716 0.5175,65.2716 1.3345,11.9611 8.5138,26.2701 16.2177,32.3237 8.5837,6.7449 19.3009,9.7103 31.7637,8.7889 17.3897,-1.2856 30.6229,-9.0355 36.8877,-21.6028 5.5175,-11.0683 5.6054,-12.2958 5.8323,-81.5098 l 0.2098,-64 h 19 19 v 67.5 c 0,76.5931 0.2916,73.3935 -8.2937,91 -8.3256,17.074 -24.0145,30.271 -43.3327,36.45 -15.5505,4.9738 -30.5225,6.4486 -45.5748,4.4891 z m 339.6179,0.6457 c -0.2292,-0.2283 -2.4417,-0.7123 -4.9167,-1.0755 -9.2083,-1.3513 -18,-6.7421 -23.1112,-14.171 -6.407,-9.3121 -6.3159,-8.5461 -6.8768,-57.8383 l -0.512,-45 -9,-0.5 c -4.95,-0.275 -9.5625,-0.8641 -10.25,-1.309 -0.8601,-0.5567 -1.25,-3.8694 -1.25,-10.62 v -9.8109 l 4.25,-0.6315 c 2.3375,-0.3473 7.0919,-1.0352 10.5654,-1.5287 3.4734,-0.4935 6.5549,-1.1368 6.8476,-1.4296 0.2927,-0.2927 2.1057,-8.7758 4.0287,-18.8513 3.5661,-18.6837 4.6337,-21.7007 8.5722,-24.2235 2.685,-1.7198 3.862,-1.859 14.467,-1.7107 l 8.2308,0.1152 0.2692,22.1617 0.2691,22.1617 19.1686,-0.2316 19.1685,-0.2316 0.3315,7.3199 c 0.1822,4.026 0.1964,9.9074 0.032,13.0699 l -0.2999,5.75 H 1468.4501 1449 l 0.076,38.75 c 0.077,39.2529 0.2995,41.9101 3.9239,46.877 3.6826,5.0466 11.2626,5.7939 19,1.873 6.206,-3.1448 7.0395,-3.1244 10.2082,0.25 3.2639,3.4758 10.7918,15.8222 10.7918,17.6995 0,3.4117 -13.2946,9.8751 -24.8673,12.0896 -7.1093,1.3604 -19.269,1.9894 -20.216,1.0457 z m -204.6733,-73.5396 0.2566,-71.5452 13.5,0.3331 c 15.6804,0.387 16.0897,0.6119 18.1049,9.9476 0.679,3.1456 1.3713,5.8949 1.5384,6.1095 0.1671,0.2147 2.1414,-1.2698 4.3872,-3.2988 11.6452,-10.5207 24.54,-15.5914 39.649,-15.5914 26.0101,0 42.4895,12.3551 48.8013,36.5877 1.1632,4.4659 1.4765,15.6982 1.5928,57.1148 l 0.1448,51.5557 -17.8592,-0.1082 -17.8592,-0.1083 -0.5,-49.7708 -0.5,-49.7709 -2.7033,-5.5 c -2.9586,-6.0192 -8.256,-10.2388 -15.2028,-12.1094 -9.1245,-2.4569 -22.654,2.27 -32.1193,11.2219 l -5.5084,5.2096 0.052,49.8769 c 0.029,27.4323 -0.2021,50.289 -0.5134,50.7925 -0.3137,0.5076 -8.3532,0.845 -18.0421,0.7573 l -17.4762,-0.1583 z m 275.5066,71.2669 -3.75,-0.4328 V 1263.9396 1193 h 18.0067 18.0066 l -0.2566,71.25 -0.2567,71.25 -14,0.1225 c -7.7,0.067 -15.6875,-0.072 -17.75,-0.3104 z m 69.1607,-0.3653 c -1.1435,-0.7093 -1.2466,-202.0109 -0.104,-203.1535 0.4645,-0.4645 8.2355,-0.7205 17.2689,-0.5689 l 16.4244,0.2756 0.5,64 c 0.275,35.2 0.275,81.1 0,102 l -0.5,38 h -16.3487 c -8.9917,0 -16.75,-0.249 -17.2406,-0.5532 z m -1194.69334,-98.6376 0.3869,-98.8092 46.94787,0.023 c 51.75678,0.025 55.81177,0.39 72.84743,6.5542 26.92743,9.7435 46.90213,31.229 54.99447,59.154 7.55141,26.0583 5.62495,54.9961 -5.19889,78.0935 -12.44041,26.5472 -31.93474,42.5146 -62.19514,50.9428 -7.05221,1.9642 -10.50525,2.1117 -57.83478,2.4699 l -50.33477,0.381 z m 100.66158,64.9186 c 16.27267,-6.1801 26.86951,-16.7901 33.54593,-33.5876 4.39108,-11.0477 5.90264,-21.2781 5.26587,-35.6402 -1.25816,-28.3771 -12.01335,-47.8714 -31.94514,-57.9022 -12.11505,-6.0969 -18.28957,-7.0601 -45.38861,-7.0804 -20.1913,-0.015 -23.22043,0.1843 -23.75,1.5644 -0.88415,2.304 -0.74565,134.9462 0.14183,135.8337 0.41185,0.4118 12.67435,0.5791 27.25,0.3717 L 485.5,1304.41 Z M 1524,1172.4057 c -15.0867,-6.5348 -18.0413,-26.8075 -5.4227,-37.2088 10.2313,-8.4335 26.4886,-5.6099 34.1231,5.9266 2.4065,3.6365 2.7996,5.2281 2.7996,11.3357 0,6.5325 -0.2836,7.5002 -3.518,12.003 -4.6614,6.4895 -10.5074,9.4851 -18.482,9.4705 -3.3,-0.01 -7.575,-0.6932 -9.5,-1.527 z M 682,1031.8944 c -18.49132,-0.896 -29.66204,-5.6793 -41.0653,-17.5843 -10.33907,-10.7939 -14.86886,-19.0974 -18.44437,-33.8101 -0.40098,-1.65 -0.65681,-125.4 -0.5685,-275 0.17945,-304.01056 -0.40229,-280.68955 7.39436,-296.4261 5.33333,-10.76464 16.23212,-21.26693 28.53484,-27.49672 10.97252,-5.55623 13.60554,-5.92472 42.89894,-6.0037 l 27.24996,-0.0735 4e-5,16.20078 c 1e-5,8.91043 0.5064,18.58543 1.12529,21.5 3.82061,17.99248 19.51673,32.64957 36.0041,33.62077 18.93279,1.11525 35.16689,-11.50432 40.33773,-31.35651 C 806.55833,411.27549 807,404.59715 807,392.28645 V 374.9931 l 201.25,0.25345 201.25,0.25345 0.5283,20 0.5282,20 3.5762,7.5 c 9.3504,19.61001 28.0451,28.19543 47.4934,21.81101 9.2187,-3.02627 17.0207,-10.2955 22.1213,-20.61059 l 3.7526,-7.58889 0.3341,-20.56368 0.3341,-20.56368 22.6659,-0.31521 c 24.355,-0.3387 33.2483,0.51965 42.1659,4.0697 9.833,3.91448 14.365,6.97314 22.5,15.18537 8.3999,8.47968 12.5688,15.47661 16.1657,27.13197 1.7604,5.70461 1.8343,17.14011 1.8343,283.944 v 278 l -3.2627,8.5 c -8.2587,21.5153 -26.9991,36.668 -48.9232,39.5573 -6.4332,0.8477 -642.0668,1.1727 -659.3141,0.3371 z M 790.75876,947.75 790.5,894.5 h -67.84497 c -37.31474,0 -68.27658,0.2666 -68.80409,0.59245 -0.59432,0.36711 -0.84346,15.5811 -0.65503,40 L 653.5,974.5 l 2.4537,5 c 3.09252,6.30176 10.28164,14.06415 15.52168,16.75941 8.88474,4.56989 9.35695,4.60349 65.78338,4.67369 L 791.01753,1001 Z M 932,965.5 V 930 h 5.48721 5.4872 l 0.2628,35.25 0.26279,35.25 64.75,0.2573 64.75,0.2573 v -35.55721 -35.5572 l 5.5661,0.29991 5.566,0.2999 0.184,35 0.1839,35 h 64.5 64.5 l 0.2588,-52.75 c 0.2441,-49.74664 0.1587,-52.75423 -1.5,-52.82432 -0.9673,-0.0409 -10.7588,-0.25148 -21.7588,-0.468 l -20,-0.39367 -0.2999,-5.53201 -0.2999,-5.532 h 22.058 22.0579 l -0.258,-58.25 -0.2581,-58.25 -21.75,-0.2695 c -18.373,-0.22766 -21.7629,-0.49937 -21.8333,-1.75 -0.046,-0.81428 -0.1211,-3.168 -0.1673,-5.2305 l -0.084,-3.75 22.1673,-0.26913 L 1214,754.96174 V 692.98087 631 h -22.5 -22.5 v -5.5 -5.5 h 22.5083 22.5082 l -0.2582,-56.42055 -0.2583,-56.42054 -64.7831,-0.51699 -64.7831,-0.51698 0.2831,39.35719 0.2831,39.35719 -4.0843,0.33034 c -8.1019,0.65528 -7.4157,4.2768 -7.4157,-39.136 0,-30.19868 -0.2776,-38.89896 -1.25,-39.17667 C 1071.0625,506.66064 1041.925,506.5 1007,506.5 h -63.5 l -0.26161,39.25 -0.2616,39.25 H 937.48839 932 l 4e-5,-39.25 4e-5,-39.25 h -64.99519 -64.99518 l 0.079,56.75 0.079,56.75 H 824.58382 847 v 5.48087 5.48087 L 824.75,631.23087 802.5,631.5 v 61.5 61.5 l 22.25,0.26913 22.25,0.26913 V 760.5 765.96174 L 824.75,766.23087 802.5,766.5 v 58 58 l 22.25,0.26913 22.25,0.26913 v 5.73366 5.73365 l -21.45652,0.16133 c -11.80109,0.0887 -21.92729,0.45227 -22.50266,0.80787 -1.03163,0.63758 -1.40274,103.09499 -0.37952,104.77523 0.2512,0.4125 29.45518,0.75 64.89772,0.75 H 932 Z M 867,756.99655 V 601.9931 l 141.25,0.25345 141.25,0.25345 0.1047,154.75 0.1046,154.75 H 1008.3547 867 Z M 1125.5,757 V 626.5 H 1008 890.5 v 129.42718 c 0,106.14375 0.23847,129.6659 1.32559,130.75416 1.08921,1.09035 22.04136,1.28165 117.50001,1.07282 L 1125.5,887.5 Z m 217.5485,240.39684 c 7.627,-3.61424 12.7287,-8.62983 16.6506,-16.3695 L 1362.5,975.5 l 0.3019,-40.15444 0.302,-40.15444 -5.802,-0.41168 c -3.191,-0.22642 -34.1519,-0.38193 -68.8019,-0.34556 l -63,0.0661 -0.2588,53.28958 -0.2588,53.28962 55.7588,-0.2896 L 1336.5,1000.5 Z M 791,824.5 V 766 h -69 -69 v 58.5 58.5 h 69 69 z m 572,-0.007 v -58.50689 l -68.75,0.25689 -68.75,0.25689 -0.2581,58.25 -0.258,58.25 h 69.008 H 1363 Z M 791,693 v -62 h -69 -69 v 62 62 h 69 69 z m 572,0 v -62 h -69 -69 v 62 62 h 69 69 z M 791,564 c 0,-30.8 -0.1125,-56.33362 -0.25,-56.74137 -0.1375,-0.40776 -31.1875,-0.76075 -69,-0.78443 L 653,506.43115 V 563.21558 620 h 69 69 z m 572,0 c 0,-30.8 -0.1125,-56.3375 -0.25,-56.75 -0.1375,-0.4125 -31.1874,-0.75 -68.9997,-0.75 h -68.7498 l -2e-4,56.75 L 1225,620 h 69 69 z M 759.55426,432.27298 c -6.57957,-1.67392 -14.7025,-10.73495 -16.28591,-18.16673 C 742.84576,412.12281 742.5,395.2 742.5,376.5 v -34 l 2.85153,-5.8072 c 5.49274,-11.18605 18.17706,-16.33793 30.30001,-12.30668 5.00311,1.66368 10.79569,6.23787 13.44102,10.61388 3.81002,6.30268 4.08039,9.55978 3.73653,45.01284 -0.32011,33.00484 -0.42661,34.65909 -2.4776,38.48716 -5.31437,9.91901 -12.63838,14.52211 -22.85149,14.36204 -3.3,-0.0517 -6.87558,-0.3168 -7.94574,-0.58906 z m 480.59094,-0.34293 c -6.7258,-2.69382 -13.3329,-10.20162 -15.2547,-17.33417 -0.7157,-2.6563 -1.0591,-16.03734 -0.977,-38.07159 0.1208,-32.42172 0.2239,-34.18263 2.253,-38.5 2.3761,-5.05566 7.5355,-11.02429 9.5297,-11.02429 0.7171,0 1.3038,-0.37877 1.3038,-0.84171 0,-1.37567 7.3412,-3.15829 13.0065,-3.15829 9.5573,0 20.1026,7.74532 22.7991,16.74553 1.4702,4.90693 1.6903,71.22533 0.2528,76.12716 -1.9577,6.67502 -6.6647,11.95172 -13.5584,15.19911 -4.3548,2.05141 -15.1776,2.53133 -19.3548,0.85825 z"
       id="path1" />
  </g>
</svg>
