<?xml version="1.0" encoding="UTF-8" standalone="no"?>
<!-- Created with Inkscape (http://www.inkscape.org/) -->

<svg
   version="1.1"
   id="svg1"
   width="3840"
   height="1116"
   viewBox="0 0 3840 1116"
   xmlns="http://www.w3.org/2000/svg"
   xmlns:svg="http://www.w3.org/2000/svg">
  <defs
     id="defs1" />
  <g
     id="g1">
    <path
       style="fill:#000000"
       d="m 994,984.4879 c -10.175,-0.68309 -24.35,-1.52912 -31.5,-1.88005 -7.15,-0.35094 -15.7,-0.84618 -19,-1.10053 -3.3,-0.25436 -10.95,-0.69899 -17,-0.98806 -14.93398,-0.71355 -45.53192,-2.42547 -53.5,-2.99326 -3.575,-0.25475 -11.675,-0.71906 -18,-1.03181 -6.325,-0.31275 -13.975,-0.76014 -17,-0.99421 -3.025,-0.23407 -11.125,-0.68725 -18,-1.00706 -6.875,-0.31982 -19.475,-0.99161 -28,-1.49288 -8.525,-0.50127 -20.9,-1.1633 -27.5,-1.47117 -6.6,-0.30788 -14.475,-0.76389 -17.5,-1.01335 -3.025,-0.24947 -10.675,-0.70039 -17,-1.00204 -19.29352,-0.92015 -74.31945,-3.88558 -102,-5.49693 -9.075,-0.52828 -21.675,-1.21421 -28,-1.52429 -6.325,-0.31007 -18.7,-0.99637 -27.5,-1.52511 -8.8,-0.52873 -24.1,-1.42353 -34,-1.98844 -9.9,-0.56491 -25.2,-1.46197 -34,-1.99347 -23.75731,-1.4349 -78.35377,-4.51321 -115,-6.48406 -5.5,-0.29579 -13.375,-0.76576 -17.5,-1.04438 -7.92134,-0.53503 -42.97957,-2.42384 -92,-4.95661 -36.01194,-1.86066 -41.6676,-2.35304 -45.5,-3.96127 -6.1429,-2.5778 -11.5,-10.12017 -11.5,-16.19108 0,-3.82401 3.53799,-10.41677 7.09132,-13.2141 4.40979,-3.47157 8.5944,-4.0455 22.72033,-3.11617 29.91049,1.96778 93.34664,5.15748 93.78825,4.71586 0.26476,-0.26475 -0.48341,-2.11655 -1.6626,-4.11512 -1.54016,-2.61038 -2.12509,-5.21404 -2.07694,-9.24498 0.0807,-6.75638 2.38629,-11.63841 7.42066,-15.71305 6.61612,-5.35487 18.19555,-4.44116 22.25621,1.75619 1.57195,2.39911 1.57586,2.76199 0.0547,5.08353 -1.81471,2.76959 -3.28093,3.05447 -6.99985,1.36002 -5.36305,-2.44358 -10.73905,2.43579 -9.24395,8.38998 1.40844,5.60905 7.97759,9.14252 14.33245,7.70927 6.06205,-1.36722 10.08965,-5.07246 28.76122,-26.45927 10.08363,-11.55 23.78434,-27.19194 30.44602,-34.75988 C 436.54953,839.17219 442,832.6243 442,832.18926 c 0,-0.43504 -3.2625,-1.30026 -7.25,-1.92271 -14.5393,-2.26959 -23.90813,-4.82827 -40.0131,-10.92778 -24.05977,-9.11226 -43.7216,-22.20345 -64.26323,-42.78756 -21.85033,-21.89552 -35.19902,-45.46053 -42.39358,-74.8392 -5.74041,-23.44075 -6.82624,-49.82356 -4.55651,-110.71201 0.97199,-26.07497 1.49609,-55.74617 1.22764,-69.5 -0.70813,-36.27925 -2.95913,-43.07458 -17.26389,-52.11641 -25.90504,-16.37419 -29.67231,-22.68655 -27.8729,-46.70317 0.48706,-6.50077 0.55503,-12.70865 0.15104,-13.7953 -0.71839,-1.93228 -5.76079,-4.53782 -20.1655,-10.42004 -13.0052,-5.31071 -20.94824,-11.84099 -25.67161,-21.1056 -8.81083,-17.28193 0.14244,-40.94879 16.79925,-44.40673 6.32487,-1.31304 25.47386,0.29743 40.77239,3.42904 1.1,0.22517 6.95,1.39362 13,2.59657 18.49336,3.6771 33.36459,6.8177 47.5,10.03135 7.425,1.68806 14.625,3.29264 16,3.56573 1.375,0.27309 3.85,0.91629 5.5,1.42932 1.65,0.51304 11.55,2.53201 22,4.48662 22.80967,4.26639 28.58636,5.83572 34.5,9.37247 2.475,1.48021 5.75012,3.23749 7.27804,3.90506 3.41206,1.49077 3.68944,0.91751 6.1785,-12.76891 0.95024,-5.225 2.60966,-12.05397 3.6876,-15.17548 l 1.95989,-5.67548 -3.24718,-6.32452 -3.24717,-6.32452 0.20653,-15.95053 c 0.1136,-8.77278 -0.24996,-17.3337 -0.80789,-19.02426 -1.19286,-3.6144 -13.77125,-15.36039 -19.54458,-18.25117 -4.82146,-2.41418 -16.91011,-5.50264 -32.96374,-8.42173 -9.36724,-1.70329 -15.94914,-2.18966 -30,-2.21687 -19.17538,-0.0371 -25.87826,0.84416 -48.5,6.37673 -24.66402,6.03206 -35.82757,7.46327 -58,7.43581 -15.19023,-0.0188 -22.96062,-0.48038 -30,-1.78201 -9.56606,-1.76884 -27.3613,-6.85698 -32,-9.14966 -5.43959,-2.68853 -7.33161,-2.57672 -11,0.65003 -5.41741,4.7652 -7.06819,5.60194 -13.27154,6.72699 -10.41493,1.88886 -20.27998,-1.29442 -28.595454,-9.22727 -8.337388,-7.95376 -10.454175,-18.15194 -5.710689,-27.51276 2.399464,-4.73511 8.271643,-10.84878 12.693083,-13.21506 3.83669,-2.05333 12.09976,-3.91383 17.43826,-3.92637 10.15677,-0.0239 21.17336,8.39908 25.07015,19.16783 2.32963,6.43792 3.29446,6.75565 20.87619,6.87482 27.62962,0.18728 42.07756,-3.81255 81.5,-22.56281 10.725,-5.10106 28.275,-12.95595 39,-17.4553 10.725,-4.49934 20.85,-8.77466 22.5,-9.50069 14.82866,-6.52491 58.43568,-18.96557 84.5,-24.10702 11.20965,-2.21122 40.02164,-3.03388 52.7335,-1.5057 11.24363,1.35169 31.33989,6.86161 41.08037,11.26328 33.30854,15.05196 47.43156,24.33889 55.70205,36.62825 3.49169,5.18838 5.29594,6.81689 10.11682,9.13138 12.84038,6.16461 19.86082,18.03226 24.78318,41.89454 0.83281,4.03726 2.6815,9.42898 4.1082,11.98162 3.74611,6.70253 3.51281,11.99609 -0.9832,22.30812 -3.22319,7.3927 -3.74653,9.77072 -4.4829,20.36981 -0.45853,6.6 -1.3349,13.26873 -1.94749,14.8194 -2.48782,6.29751 0.51405,11.03141 16.71803,26.36407 7.08171,6.70091 15.75485,15.89804 19.27364,20.43806 13.58061,17.52201 18.15633,20.8931 28.32594,20.8687 7.20996,-0.0173 23.46025,-9.35974 26.23921,-15.08516 0.64205,-1.32279 2.61098,-5.64548 4.37541,-9.60598 3.59705,-8.07405 7.48676,-11.53597 14.7851,-13.15902 2.38033,-0.52936 4.43622,-1.11493 4.56865,-1.30127 0.13243,-0.18634 1.55615,-2.46678 3.16383,-5.06764 3.43143,-5.55125 9.98563,-10.71185 16.79777,-13.2261 3.9485,-1.45733 6.85066,-1.69957 15.5,-1.29379 10.12971,0.47524 12.38479,1.02265 21.70207,5.26805 4.82073,2.19655 12.128,9.15297 15.55271,14.80595 3.2444,5.35535 8.01531,9.65408 23.38711,21.07246 4.95,3.67693 10.575,7.90354 12.5,9.39248 4.92154,3.80668 20.36099,14.82056 24.8259,17.70979 0.84995,0.55 4.72433,3.17883 8.60973,5.84185 10.72271,7.34923 18.53686,12.41156 36.06437,23.36397 33.37833,20.85711 43.82403,27.01884 67,39.52209 34.93001,18.84446 74.0582,37.80029 95.1792,46.11 7.2251,2.84257 11.536,3.83366 20.2494,4.65536 22.4893,2.12081 46.675,10.08949 65.0059,21.41808 5.8474,3.61372 11.3998,5.22889 36.0655,10.49135 33.2014,7.08355 40.8407,8.57615 64,12.50448 85.9383,14.57707 187.5226,26.36868 311,36.1 4.125,0.32509 12.225,1.0186 18,1.54111 5.775,0.52252 12.3351,0.95041 14.5781,0.95087 l 4.078,8.4e-4 1.2832,-14.10597 1.2831,-14.10598 -5.009,-5.14402 c -16.752,-17.20345 -18.5046,-41.44806 -4.0419,-55.9108 4.7693,-4.7693 4.9258,-4.83923 6.6068,-2.9526 2.9857,3.35108 10.4328,8.70938 18.9144,13.60927 4.506,2.60315 10.903,7.15133 14.2156,10.10708 l 6.0228,5.37409 8.7845,-3.54378 c 30.3064,-12.22606 52.4713,-13.72442 99.7844,-6.74551 26.8073,3.95422 36.7668,5.19064 55.5,6.89006 9.625,0.87316 26.725,2.52739 38,3.67607 33.65,3.42821 51.4571,1.78871 74,-6.81319 9.9881,-3.81123 37.962,-17.39182 45.0794,-21.88484 6.3775,-4.02597 12.2167,-10.57674 16.1536,-18.12221 4.8518,-9.29897 6.4226,-14.34562 9.9063,-31.82767 7.882,-39.55357 15.9478,-62.95764 27.0525,-78.4964 l 3.9279,-5.49639 -2.8098,-2.27303 c -6.8526,-5.54332 -18.0912,-10.52843 -26.3099,-11.6702 -10.6314,-1.47695 -20.2856,-9.17631 -23.5615,-18.79052 -1.3876,-4.07236 -2.3872,-5.00843 -11.0787,-10.37484 -5.2545,-3.24424 -12.0975,-7.93807 -15.2067,-10.43073 -11.1069,-8.90443 -25.8402,-30.06808 -33.3933,-47.96789 -6.2957,-14.92001 -6.9811,-17.76094 -7.5141,-31.14605 -0.4427,-11.11662 -0.2344,-13.5324 1.7224,-19.97478 1.2243,-4.0308 3.3236,-9.49461 4.665,-12.1418 4.4315,-8.74511 10.6316,-8.73756 14.6754,0.0179 2.0286,4.39215 2.1986,6.34253 2.2874,26.24476 0.099,22.23242 0.6481,25.89322 5.5395,36.94384 1.8717,4.22843 3.2344,3.83017 2.374,-0.69384 -5.2735,-27.7299 -4.5883,-49.39068 2.0911,-66.09795 3.6056,-9.01849 8.7087,-18.89839 12.3772,-23.96263 3.0021,-4.1442 6.6617,-5.45235 9.5791,-3.42411 3.7565,2.61159 5.0242,14.78659 2.9683,28.50815 -0.8878,5.9254 -1.3425,11.2129 -1.0106,11.75 1.2588,2.03676 3.3983,0.8241 6.1109,-3.46364 5.4575,-8.62649 9.0628,-5.98413 8.0093,5.87019 -0.7223,8.12799 -2.204,12.77902 -7.285,22.86808 -6.776,13.45434 -8.5359,19.37707 -8.4414,28.40843 0.093,8.92041 1.6167,14.61759 6.2581,23.40412 3.4487,6.52883 14.2464,18.74187 18.4405,20.85774 1.5912,0.80275 4.0181,2.19664 5.3931,3.09754 2.081,1.36347 15.0102,6.2078 14.9954,5.61851 -0,-0.10144 -1.1169,-2.88443 -2.4763,-6.18443 -1.6811,-4.08098 -2.4743,-7.91902 -2.4801,-12 -0.013,-9.48609 1.1155,-9.79672 5.8903,-1.62103 5.0265,8.60657 11.4517,15.28195 24.0707,25.0081 13.1061,10.10154 19.3152,13.11293 27.0372,13.11293 9.5332,0 12.3026,-2.28889 19.7964,-16.36178 5.5175,-10.36139 5.8581,-10.68914 8.1687,-7.8623 4.2976,5.25774 3.1927,20.50236 -2.2738,31.37161 -3.3244,6.61026 -3.0595,14.41867 0.6545,19.28792 4.7342,6.20691 11.1356,8.54314 23.4407,8.55478 13.3317,0.0126 21.239,2.58334 37.6095,12.22717 20.2785,11.94605 23.2809,16.37615 21.2013,31.2826 -0.3837,2.75 -0.2648,6.4625 0.2642,8.25 l 0.9617,3.25 -3.6802,0.008 c -10.7328,0.0235 -36.7384,4.60032 -48.1035,8.46585 -12.1795,4.14251 -15.6317,6.28536 -18.3825,11.4105 -3.5517,6.61717 -4.48,12.2137 -7.2337,43.60809 -1.3512,15.40412 -3.359,33.05703 -4.4618,39.2287 -2.2583,12.6378 -9.9764,38.19809 -16.5897,54.94091 -2.425,6.13916 -4.409,11.49551 -4.409,11.90299 0,0.92029 88.9478,-0.25927 121.5,-1.61123 23.8,-0.98847 74.5416,-4.01308 100.5,-5.99062 36.1091,-2.75083 96.6729,-8.64308 98.1366,-9.5477 0.4194,-0.2592 0.5005,-2.68373 0.1803,-5.38784 -0.5622,-4.74635 0.042,-8.29776 3.0894,-18.16997 1.4107,-4.56932 1.3901,-4.68715 -1.3088,-7.5 -11.036,-11.50165 -14.643,-19.43076 -13.1087,-28.8158 0.9353,-5.72072 8.6925,-22.65574 10.6283,-23.20292 0.4856,-0.13725 1.9418,2.00531 3.236,4.76126 3.2057,6.82655 14.1358,17.60798 22.1469,21.84563 9.0433,4.78368 13.3187,4.66322 23.0285,-0.64881 9.4069,-5.14631 19.4162,-8.73004 30.1219,-10.78485 9.7119,-1.86406 34.0735,-2.13395 49.0996,-0.54396 23.1108,2.44547 28.8731,2.94685 39.75,3.45861 28.043,1.31944 57.0875,2.06478 76.5,1.96313 26.1637,-0.13699 30.56,-1.15684 53,-12.29502 12.5639,-6.23614 18.8992,-8.71092 29.5,-11.52373 17.6554,-4.68465 23.153,-7.51692 29.2874,-15.08827 6.5044,-8.0281 15.3987,-26.13794 17.1812,-34.98302 0.7758,-3.85 1.9226,-15.1 2.5483,-25 1.6624,-26.30179 2.6585,-30.54049 11.6988,-49.78238 7.0549,-15.01604 7.8716,-13.76802 -14.2157,-21.72414 -9.0149,-3.24728 -18.6352,-8.92767 -28,-16.53285 -7.257,-5.89345 -15.8797,-11.56949 -25,-16.45669 -15.1129,-8.09842 -18.0984,-10.81281 -33.0994,-30.09373 -16.0909,-20.68195 -21.7367,-30.56306 -24.8881,-43.55857 -2.3064,-9.51087 -1.842,-22.22511 0.9234,-25.28086 2.7507,-3.03945 3.7761,-1.48957 7.0383,10.6388 4.3521,16.17997 5.5,16.35404 4.8141,0.73001 -0.89,-20.27027 2.983,-34.41623 11.7724,-42.99883 3.2735,-3.19654 4.3016,-3.70149 5.7154,-2.80728 1.8705,1.18303 2.0828,7.49832 1.1554,34.36652 -0.4267,12.36209 0.5199,24 1.9521,24 0.4068,0 1.3301,-4.8375 2.0519,-10.75 1.4537,-11.909 4.9091,-23.54756 8.8883,-29.93777 2.9737,-4.77567 6.6473,-6.99608 8.7236,-5.27285 2.3624,1.96057 4.4526,14.32986 4.4526,26.34901 0,11.73819 1.279,16.00868 2.5055,8.36586 2.2306,-13.89937 8.0759,-34.17658 12.0896,-41.9382 2.7021,-5.22523 10.4153,-12.81605 13.0227,-12.81605 3.8818,0 4.2819,5.93336 1.4102,20.91186 -0.5707,2.97652 -0.8665,5.58301 -0.6573,5.79221 0.2092,0.20919 2.694,-2.56364 5.5217,-6.16186 2.8277,-3.59821 5.5679,-6.54221 6.0893,-6.54221 3.2369,0 3.9781,11.30638 1.5103,23.038 -1.7609,8.37087 -6.1631,19.77869 -11.1763,28.962 -9.3648,17.15472 -9.9332,19.87451 -5.841,27.95003 1.4815,2.92355 4.7379,7.50106 7.2364,10.17224 6.7842,7.2528 37.4653,27.87773 41.4702,27.87773 2.5222,0 4.455,-3.43259 7.3169,-12.99386 1.3735,-4.58907 3.2494,-9.17477 4.1686,-10.19046 1.6197,-1.78975 1.7474,-1.77683 4.1381,0.4188 4.2551,3.90796 6.4301,10.30222 6.8778,20.2199 0.4716,10.45036 2.1016,14.57597 6.7471,17.07776 2.752,1.48205 3.7655,1.5585 6.9087,0.52116 6.4317,-2.12264 9.8672,-8.15151 12.2208,-21.44572 1.333,-7.5289 3.4876,-12.60758 5.3487,-12.60758 1.5821,0 3.9539,4.67895 5.6383,11.12268 2.694,10.30618 1.0596,20.82788 -5.1339,33.05026 -1.4008,2.76426 -2.4041,5.15087 -2.2296,5.30357 0.9607,0.84088 9.7004,4.92569 13.22,6.17886 2.2534,0.80237 11.5222,3.00987 20.5972,4.90557 9.075,1.89569 18.975,4.42466 22,5.61993 8.4352,3.33299 28.5311,14.8242 35.2876,20.17811 1.9665,1.55828 3.7124,6.63803 3.7124,10.80151 0,3.7416 -3.6158,11.79692 -6.8143,15.18109 -4.2179,4.46267 -8.7011,6.2617 -27.5438,11.05265 -20.1083,5.11277 -30.0156,9.40439 -33.3548,14.44855 -3.382,5.109 -6.3068,13.77651 -7.5675,22.42641 -0.9485,6.50712 -0.8494,9.86259 0.5914,20.02393 2.8571,20.15075 2.2512,32.54778 -3.4068,69.70688 -1.1305,7.425 -2.9215,16.94998 -3.9799,21.16661 -1.0584,4.21664 -1.9243,8.2084 -1.9243,8.87058 0,1.40958 31.2688,0.77206 78.5,-1.6005 62.5587,-3.14251 144.6806,-11.26003 197.8552,-19.55743 l 13.8552,-2.16198 -0.6605,-4.10864 c -1.6309,-10.14435 -2.4905,-18.61762 -2.519,-24.82983 -0.031,-6.63062 -0.121,-6.85296 -6.7156,-16.5 -3.6766,-5.37835 -7.4572,-11.80441 -8.4014,-14.28014 -4.0212,-10.54343 -3.3009,-20.78129 2.2339,-31.75194 l 3.1547,-6.25327 3.4814,4.06715 c 4.1921,4.89756 21.4667,18.14424 28.0136,21.48166 7.0332,3.58534 8.9052,3.56788 20.2706,-0.18908 33.1174,-10.9473 61.6424,-13.02539 95.9319,-6.98879 28.2131,4.96686 61.0323,7.19261 104.5,7.08702 34.8815,-0.0847 50.2044,-4.26122 94.2704,-25.69494 26.1474,-12.71804 35.0199,-24.64058 37.3162,-50.14356 1.5341,-17.0378 4.8705,-43.26218 6.5664,-51.61292 0.8378,-4.125 2.8734,-11.72093 4.5237,-16.87984 5.8889,-18.40982 6.7803,-23.46341 4.7937,-27.17555 -1.4214,-2.65589 -5.083,-4.38425 -20.3152,-9.58934 -16.6392,-5.68592 -30.8508,-13.13118 -46.6924,-24.46164 -8.4221,-6.02379 -18.1366,-11.71839 -29.9628,-17.56405 -15.5976,-7.70989 -18.2113,-9.37014 -24.0431,-15.27273 -13.6947,-13.8609 -21.0283,-38.07255 -18.0394,-59.55685 1.6094,-11.56843 2.7382,-14.5 5.5833,-14.5 6.1436,0 10.8848,7.82943 16.9558,28 2.0693,6.875 5.2292,15.65 7.022,19.5 3.0851,6.6251 9.6835,15.5 11.5242,15.5 2.134,0 -0.9288,-22.74332 -4.7808,-35.5 -2.2117,-7.32458 -2.718,-10.95465 -2.7198,-19.5 -0,-9.68588 0.2117,-10.8569 2.7567,-15.10309 3.5555,-5.93207 5.5472,-7.67184 9.2411,-8.07195 2.8018,-0.30349 3.2149,0.11375 6.2527,6.31567 2.471,5.04464 3.7086,9.66374 5.1495,19.21927 1.2989,8.61446 2.5845,13.69158 4.0793,16.11011 2.0434,3.30639 5.5784,6.52999 7.1606,6.52999 1.0019,0 3.5771,-8.66426 4.26,-14.33234 0.6975,-5.7896 3.3055,-11.66766 5.1767,-11.66766 2.0989,0 3.2405,3.0033 5.0734,13.3482 0.9313,5.25597 2.0896,9.3114 2.5739,9.01208 0.4843,-0.29933 2.4716,-3.99035 4.4161,-8.20226 8.091,-17.52494 11.7262,-24.11351 16.0008,-29.00006 2.4817,-2.83688 4.9525,-5.15796 5.4908,-5.15796 0.5383,0 1.9323,2.1375 3.0978,4.75 1.6735,3.75124 2.121,6.74752 2.1285,14.25 0.014,13.7253 -1.5468,19.54506 -7.675,28.62387 -9.0666,13.43208 -8.9708,13.23076 -8.9708,18.84941 0,13.22268 14.5272,31.87775 33.3707,42.8529 4.66,2.71416 5.915,2.6481 5.915,-0.31135 0,-3.82666 3.1549,-12.13029 4.4936,-11.82713 0.7585,0.17176 4.2202,4.57209 7.6927,9.7785 7.4335,11.14517 11.109,14.0338 17.8566,14.0338 5.9943,0 7.9306,-1.89416 12.267,-12 2.4163,-5.63101 3.7518,-7.57653 5.3591,-7.80709 1.8366,-0.26346 2.2964,0.41835 3.2359,4.79922 1.4061,6.55659 1.3901,14.33626 -0.048,23.04102 -0.9249,5.60085 -0.8874,7.22575 0.1969,8.5323 3.2574,3.9249 37.3452,18.43455 43.3087,18.43455 0.8689,0 8.4551,2.507 16.8584,5.57111 27.7465,10.11734 33.0542,13.7825 34.2907,23.6794 0.9018,7.21784 -0.8871,13.47494 -4.8625,17.00754 -4.2454,3.77257 -27.8679,14.4086 -36.3324,16.35863 -16.6602,3.83817 -19.9893,5.18233 -23.7677,9.59655 -6.9887,8.1647 -8.1903,20.04866 -4.3583,43.10355 1.7193,10.34378 2.2039,17.49088 2.25,33.18322 0.063,21.33976 -1.3549,33.48001 -5.897,50.5 -5.2675,19.73823 -9.5519,28.7585 -21.6114,45.5 -8.113,11.26273 -11.4873,17.91325 -12.4388,24.5155 -1.1273,7.82229 2.9151,11.17163 29.6189,24.54104 26.1449,13.08954 33.9309,18.89512 38.1461,28.44346 2.5283,5.72699 3.348,17.18976 1.8052,25.24463 -1.2792,6.67921 -18.6486,60.2329 -22.7863,70.25537 -3.91,9.4709 -6.3415,11.44659 -22.6438,18.39927 -11.6031,4.94852 -15.7934,5.13676 -18.9786,0.8526 -1.5677,-2.10856 -2.0551,-4.31947 -2.0943,-9.5 -0.084,-11.12566 4.5345,-18.02322 20.4388,-30.52326 6.8528,-5.38596 11.1471,-12.41942 14.0548,-23.01952 2.8693,-10.46053 3.0071,-19.20614 0.3735,-23.71538 -3.2422,-5.55155 -4.4269,-4.97166 -4.4391,2.17296 -0.021,12.14245 -2.5456,17.42037 -19.2947,40.33333 -16.7176,22.86978 -26.7798,33.87731 -32.3819,35.42413 -4.1229,1.1384 -47.0677,0.19084 -49.5626,-1.09357 -0.9625,-0.49551 -1.75,-1.60316 -1.75,-2.46145 0,-3.83747 8.6734,-15.77373 18.4161,-25.34401 l 6.5915,-6.4749 10.2671,-0.0251 c 9.6195,-0.0235 10.7003,-0.2384 17.1372,-3.40718 11.8503,-5.83375 24.5881,-20.44844 24.5881,-28.21114 0,-6.836 -4.701,-8.70558 -32.5,-12.92511 -35.9595,-5.4582 -45.0142,-7.49579 -70.7094,-15.9119 l -15.2906,-5.00823 -9.5,1.42942 c -16.4053,2.46842 -45.4269,4.50984 -63.8103,4.48852 -17.1192,-0.0199 -33.1055,-1.23062 -59.1897,-4.4829 -25.8483,-3.22286 -24.9613,-3.24917 -32.6659,0.969 -3.7588,2.05785 -8.8039,5.38244 -11.2115,7.38798 -9.7597,8.12992 -14.5026,11.44235 -20.905,14.60011 -12.5302,6.18008 -29.2338,10.38186 -47.7176,12.00332 -35.5862,3.12173 -43.5965,4.6009 -52.2253,9.64389 -8.1232,4.74742 -36.3198,33.25707 -55.78,56.39912 -26.853,31.93364 -46.2396,50.49899 -54.4469,52.14044 -2.5976,0.51951 -3.1441,0.23656 -4.0266,-2.08477 -2.8246,-7.42911 0.1357,-22.07582 6.3373,-31.35509 2.756,-4.1238 3.6323,-4.74032 7.1415,-5.02442 4.7871,-0.38757 6.9586,-2.1638 9.4041,-7.69222 1.0971,-2.48011 4.1765,-6.114 7.6795,-9.06216 18.5167,-15.58377 27.1567,-26.28856 46.1203,-57.14217 6.7008,-10.90212 12.4746,-20.58118 12.8306,-21.50904 0.5136,-1.33841 -0.6628,-1.05563 -5.6935,1.36851 -15.0348,7.24479 -24.2736,13.78788 -51.341,36.36052 -19.2403,16.04534 -23.9251,20.06519 -46.8787,40.2254 -15.4092,13.53393 -22.929,19.27427 -29.3163,22.37881 -5.1755,2.51555 -11.5288,3.07243 -13.4245,1.17669 -0.6457,-0.64572 -1.3892,-4.52732 -1.6523,-8.62578 -0.607,-9.45966 1.4268,-16.21073 7.0991,-23.56412 5.0485,-6.54477 9.77,-9.15192 18.1434,-10.0186 7.3497,-0.76072 9.5293,-2.18892 9.5293,-6.2441 0,-6.30068 4.0988,-10.17965 20.5,-19.4007 7.0879,-3.98495 18.6646,-11.76509 28,-18.81753 14.8354,-11.20742 67.5,-64.68332 67.5,-68.53989 0,-0.44636 -2.1222,-0.41509 -4.7161,0.0695 -7.0164,1.3108 -44.8737,6.68 -51.7839,7.34437 -3.3,0.31728 -7.35,0.77718 -9,1.02202 -7.8991,1.17211 -52.6268,4.52628 -74.4882,5.58594 -26.8799,1.30291 -109.7218,0.65601 -130.5118,-1.01914 -6.6,-0.5318 -16.7942,-1.27696 -22.6539,-1.65592 l -10.6538,-0.68903 -1.5962,3.08659 c -1.9618,3.79384 -2.0476,9.1695 -0.2162,13.55263 2.2701,5.43307 14.3992,14.18535 34.1201,24.62074 24.2633,12.83904 27.179,15.0101 30.9048,23.01253 1.8819,4.04182 2.0815,6.17998 1.9605,21 -0.118,14.45694 -2.3003,39.3612 -5.3137,60.63968 -1.8556,13.10239 -7.5413,25.97668 -14.8903,33.71621 -4.5181,4.75823 -8.6933,7.46523 -21.3077,13.81477 -11.8847,5.98233 -15.0758,6.12418 -18.657,0.82934 -2.0443,-3.02256 -2.3203,-4.45488 -2.0235,-10.5 0.5764,-11.73946 3.7005,-16.72366 20.6846,-33 4.0094,-3.84226 7.378,-8.26816 9.367,-12.30705 2.8707,-5.82912 3.1385,-7.26889 3.5347,-19 0.2357,-6.98112 0.01,-13.7929 -0.5094,-15.13728 -1.0739,-2.79879 0.4065,-4.99189 -13.5054,20.00674 -11.0523,19.86023 -18.0621,30.29214 -25.0521,37.28215 -10.0908,10.09078 -10.8097,10.28406 -41.1925,11.07495 -25.0331,0.65164 -26.1209,0.60119 -29.25,-1.35665 -2.4287,-1.51959 -3.25,-2.75248 -3.25,-4.87868 0,-5.85355 9.5739,-20.5071 16,-24.48905 3.1226,-1.93494 4.6956,-2.14138 14.588,-1.91448 13.729,0.3149 21.4715,-1.77432 30.0665,-8.113 10.4526,-7.70866 15.9683,-15.68704 17.0274,-24.62995 0.9263,-7.82094 0.1196,-8.10502 -38.4596,-13.54396 -27.5995,-3.89102 -25.3252,-3.4347 -56.2223,-11.28035 L 2662.5,705.5 2621,705.78013 c -55.7931,0.37661 -75.2729,-1.19246 -109.6601,-8.83295 -13.6629,-3.03578 -16.6252,-2.2333 -27.1473,7.35416 -9.4032,8.56789 -15.5632,12.59392 -28.6319,18.71294 -14.3081,6.69933 -16.0706,7.44463 -25.5607,10.8086 -4.675,1.65715 -11.65,4.32718 -15.5,5.93341 -3.85,1.60622 -9.475,3.72562 -12.5,4.70977 -5.3424,1.73809 -10.6777,3.94609 -18.1214,7.49946 -5.0035,2.38847 -17.0792,11.71439 -24.924,19.2484 -11.0112,10.57504 -22.9866,25.71442 -37.9676,47.99904 -18.0792,26.89323 -32.6239,46.36306 -41.1067,55.02644 -6.206,6.33803 -6.8972,6.7606 -11.0589,6.7606 -5.0644,0 -6.7941,-1.06649 -9.7306,-6 -1.5461,-2.59748 -2.0786,-5.17612 -2.0651,-10 0.031,-11.19371 4.4715,-17.78628 14.1899,-21.06906 5.9554,-2.01164 6.2654,-2.61125 7.3233,-14.16304 l 0.6165,-6.7321 13.5716,-12.7679 c 21.7011,-20.4159 34.9137,-36.71676 43.6089,-53.80179 4.2401,-8.3312 13.9458,-32.51779 13.3057,-33.15785 -0.5555,-0.55549 -15.7361,1.51878 -21.1377,2.88824 -2.1979,0.55722 -4.7048,1.14962 -5.5711,1.31644 -3.49,0.67211 -12.5916,3.61186 -18.8256,6.08052 -8.0552,3.18983 -11.8236,5.38369 -19.6072,11.41477 -11.0686,8.57647 -22.5899,16.09098 -52.6249,34.3235 -6.9436,4.2151 -15.7731,10.30068 -19.621,13.52349 -22.7604,19.06306 -39.3505,26.49281 -45.4769,20.36647 -1.9179,-1.91798 -2.2772,-3.33778 -2.2772,-8.99947 0,-7.94732 3.0971,-15.5567 8.9836,-22.07241 4.2514,-4.70576 8.2362,-6.13611 17.1172,-6.14423 9.1234,-0.008 11.8674,-1.28736 13.3454,-6.22034 1.9046,-6.35706 5.3581,-8.96376 18.7973,-14.18847 6.7339,-2.61791 16.8601,-7.53565 22.5026,-10.9283 14.5652,-8.75761 38.224,-25.90819 56.544,-40.98949 8.6405,-7.11291 19.0849,-15.54027 23.2099,-18.72745 17.5409,-13.55298 19.2983,-16.42538 21.8437,-35.70153 0.7568,-5.73138 0.6702,-6.25 -1.0434,-6.25 -1.0278,0 -9.8408,1.59476 -19.5845,3.54391 -47.8569,9.5734 -97.2421,16.05632 -149.7158,19.65357 -36.6684,2.51375 -135.5914,1.37747 -160.75,-1.84646 -3.44,-0.44082 -4.75,-0.26673 -4.75,0.63126 0,0.68197 4.8375,6.04221 10.75,11.91166 10.4205,10.34464 11.2521,10.92895 27.1335,19.06462 14.7318,7.54682 16.6679,8.84143 19.205,12.84203 4.6001,7.25367 5.2959,13.07925 3.9573,33.13366 -0.6449,9.66116 -1.768,30.16575 -2.4958,45.56575 -1.4437,30.54603 -2.4478,35.65256 -8.1889,41.64499 -5.0467,5.26761 -10.2191,4.79623 -20.2242,-1.84309 -11.7829,-7.81908 -11.2662,-20.39963 1.2594,-30.66337 6.5673,-5.38145 8.9282,-9.12855 8.8537,-14.05237 -0.075,-4.93537 -3.7123,-14.29004 -9.4723,-24.35902 -3.3065,-5.77989 -4.4082,-7.01158 -5.3669,-6 -2.261,2.38567 -14.3396,20.64828 -24.7879,37.47864 -5.7342,9.23682 -12.3084,18.93172 -14.6094,21.54422 -3.9622,4.49873 -4.4532,4.75 -9.2828,4.75 -9.8517,0 -19.7344,-7.40681 -19.727,-14.7848 0.01,-7.78721 7.9065,-16.17445 21.3488,-22.66951 7.4203,-3.58534 10.6159,-5.82385 14.7216,-10.31253 5.1156,-5.59282 9.8965,-14.00525 9.9161,-17.44836 0.025,-4.47819 -11.6019,-13.22777 -23.6086,-17.76544 -5.2872,-1.99817 -8.0545,-2.25494 -27.3816,-2.54063 -13.5654,-0.20052 -24.4883,-0.87392 -29.5972,-1.82467 -8.3355,-1.55121 -22.8179,-6.57065 -33.4069,-11.5785 l -6.0175,-2.84579 -29.4122,0.51868 c -49.7246,0.87687 -96.8755,-3.62869 -123.4215,-11.79368 -3.4955,-1.07512 -7.8373,-1.95477 -9.6485,-1.95477 -3.7857,0 -11.898,4.01992 -19.6434,9.73397 -10.703,7.89601 -33.3852,18.89582 -57.9808,28.11804 -19.8561,7.4451 -22.9981,8.07308 -45.872,9.16836 -22.8522,1.09424 -32.4704,2.74444 -41.8615,7.18215 -7.9729,3.76753 -11.386,7.20242 -33.5831,33.79748 -19.3776,23.21687 -68.1909,73.14586 -74.4673,76.16934 -4.1337,1.99128 -5.6859,1.50913 -7.7038,-2.39299 -8.14,-15.74115 -4.7528,-38.5171 7.5553,-50.80294 2.5082,-2.50366 11.9854,-10.12174 21.0604,-16.92906 35.6448,-26.73783 48.7947,-40.10842 60.3164,-61.32877 2.026,-3.73144 3.6836,-7.05856 3.6836,-7.3936 0,-1.14984 -13.6277,0.65765 -19.0633,2.52844 -9.6889,3.33466 -17.981,7.81132 -49.4367,26.68944 -6.6,3.96099 -18.4448,10.65449 -26.3219,14.87445 -15.4168,8.25926 -17.0688,9.37293 -43.3165,29.20112 -19.5014,14.73192 -21.1366,15.74944 -23.9004,14.87224 -3.0812,-0.97793 -4.2979,-4.40532 -4.2538,-11.98335 0.1063,-18.28473 13.6916,-36.03306 30.7719,-40.20156 4.7747,-1.16528 9.0391,-3.12124 13.5,-6.19204 12.7789,-8.79673 17.7979,-11.90611 39.8342,-24.67809 22.376,-12.96893 39.7391,-25.02175 48.1718,-33.43914 2.4831,-2.47859 8.0613,-8.24071 12.3959,-12.80472 10.0946,-10.62867 15.2805,-13.59378 27.5534,-15.75416 11.4925,-2.02303 13.7484,-3.43133 5.5154,-3.44316 -3.2725,-0.005 -11.125,-0.44195 -17.45,-0.97166 -6.325,-0.52971 -14.875,-1.22407 -19,-1.54302 -15.6127,-1.2072 -48.0501,-4.62759 -62,-6.53763 -48.2779,-6.61032 -65.8735,-9.31453 -88,-13.52448 -7.425,-1.41273 -22.725,-4.58472 -34,-7.04887 -11.275,-2.46415 -27.7,-6.05561 -36.5,-7.98102 -35.1296,-7.68622 -89.4205,-22.65153 -137.8456,-37.99718 C 1152.0393,587.97442 1145.2586,586 1144.5862,586 c -0.8328,0 -1.2547,2.15214 -1.3232,6.75 -0.2482,16.66187 -9.3147,27.15327 -27.3269,31.62166 -3.6101,0.89559 -9.0101,1.63725 -12,1.64815 -18.1997,0.0663 -24.9692,3.38676 -28.6562,14.05584 -2.1175,6.12757 -2.2207,7.94884 -2.2338,39.42435 -0.013,31.10694 -0.1545,33.68284 -2.4681,44.90336 -1.7878,8.6705 -3.7104,14.50973 -7.0791,21.5 -4.4538,9.24192 -16.965,28.90427 -21.7072,34.11466 -1.2604,1.38491 -4.9391,5.57234 -8.1749,9.30539 -7.1688,8.27052 -42.62944,40.46377 -51.64113,46.8828 -9.6324,6.86116 -17.51122,11.07474 -27.39668,14.65172 C 945.39942,854.17949 929.84984,858 925.51059,858 924.12976,858 923,858.46376 923,859.03058 c 0,0.56683 4.88339,9.67933 10.85199,20.25 5.96859,10.57068 12.09284,21.46942 13.60944,24.21942 9.37346,16.99662 14.14018,24.80798 15.88384,26.02928 1.77696,1.24464 2.33436,1.08118 5.35389,-1.57 1.85374,-1.62761 4.41003,-2.95928 5.68065,-2.95928 6.39963,0 11.43879,15.04933 7.20352,21.51316 -0.87083,1.32906 -1.58333,2.5895 -1.58333,2.80099 0,0.21148 4.6125,0.66058 10.25,0.99801 5.6375,0.33742 16.325,1.12593 23.75,1.75224 25.7867,2.17513 50.8558,-1.98136 76.143,-12.62458 7.6287,-3.21088 25.0163,-13.60633 31.357,-18.74726 23.1694,-18.78537 35.4461,-42.95118 35.4869,-69.85347 0.036,-23.72994 -12.9639,-39.80631 -34.481,-42.64126 -21.6557,-2.85321 -40.4155,5.29697 -48.7646,21.1857 -2.9909,5.69187 -3.1211,16.92767 -0.2413,20.81879 4.1237,5.57182 10.8368,6.06634 17.1353,1.26228 1.8163,-1.38535 5.387,-5.4402 7.9349,-9.01079 2.5479,-3.57058 5.4574,-6.93338 6.4655,-7.47289 3.2706,-1.75041 7.9111,-1.12507 10.4435,1.40735 8.8089,8.80893 -0.6551,34.4366 -17.0965,46.29587 -7.9551,5.73804 -12.986,7.54712 -21.3827,7.68907 -6.3462,0.10729 -8.3773,-0.30401 -13.2026,-2.67357 -10.7021,-5.25544 -18.8171,-17.16811 -20.875,-30.64401 -1.9431,-12.72491 0.5199,-25.93055 7.5642,-40.55563 14.8191,-30.76676 42.2874,-49.57362 72.245,-49.46438 26.8112,0.0978 49.2704,13.08745 60.1914,34.81274 4.6802,9.3105 5.7114,12.79838 7.5837,25.65164 7.2222,49.57978 -12.9144,94.4377 -57.0067,126.9928 -13.6229,10.05837 -28.0751,17.31775 -45.0237,22.61558 -27.059,8.45816 -50.7942,10.31211 -94.4763,7.37952 z m -42.86603,-41.18209 c -2.73848,-3.41712 -13.06029,-21.6601 -29.00305,-51.26057 -6.82533,-12.67239 -6.89827,-12.46864 -4.73745,13.23359 0.84253,10.02165 1.82494,22.94617 2.18313,28.72117 0.35819,5.775 0.72953,10.59204 0.82519,10.70453 0.24521,0.28834 19.83021,1.81392 27.44018,2.13746 l 6.34197,0.26963 z M 891.95817,941.25 c -0.023,-1.5125 -0.63396,-16.92988 -1.35767,-34.26084 -1.19396,-28.59235 -1.51167,-31.89472 -3.43027,-35.65548 -3.89895,-7.64257 -10.40566,-10.76999 -16.37336,-7.86976 -7.22514,3.51132 -9.43862,11.14344 -7.65268,26.38663 2.00207,17.08785 1.07536,24.80958 -4.24155,35.34232 -1.68253,3.33307 -5.11699,8.26014 -7.63215,10.94904 -2.51515,2.6889 -4.39244,5.05338 -4.17175,5.2544 0.38589,0.35149 28.82371,2.10117 39.65126,2.43959 5.10963,0.15971 5.24888,0.0906 5.20817,-2.5859 z m -76.271,-4.24373 c 10.9349,-6.27141 17.26488,-20.4058 17.29805,-38.62528 0.0294,-16.14329 4.42426,-32.68123 11.11092,-41.81051 1.58298,-2.16124 2.74036,-4.06731 2.57195,-4.23572 -0.1684,-0.16841 -8.82512,-0.7656 -19.23714,-1.32709 C 817.01893,850.44617 780.6,848.43019 746.5,846.52769 686.1858,843.16268 635.44849,840.55795 571,837.51797 c -17.325,-0.81721 -35.48052,-1.71621 -40.34559,-1.99778 l -8.8456,-0.51195 2.16129,3.24588 c 4.56489,6.85568 8.91139,17.12004 9.97126,23.54736 0.60752,3.68419 2.25741,13.89852 3.66643,22.69852 3.10659,19.40224 4.75462,26.08789 8.4427,34.25 1.94697,4.30885 3.38362,6.25 4.62566,6.25 0.99088,0 12.1566,0.66964 24.81272,1.4881 25.37701,1.64109 65.21599,4.02543 93.01113,5.56665 44.58231,2.47206 52.57311,2.92896 61.5,3.51649 21.39133,1.40788 69.8706,4.1823 75,4.29218 4.40743,0.0944 6.53043,-0.47316 10.68717,-2.85715 z M 493.52016,912.75 C 480.65992,899.81677 468.13464,880.35849 467.93311,873 c -0.0636,-2.3222 -0.13528,-2.35776 -1.00789,-0.5 C 465.81594,874.86164 455,916.53978 455,918.45265 c 0,1.21559 18.40649,2.69489 42.10897,3.38422 L 502.71795,922 Z m -63.97178,-7.51361 c 1.48243,-6.45501 4.40615,-18.70824 6.49715,-27.22939 2.09099,-8.52114 3.65911,-15.63569 3.4847,-15.8101 -0.17441,-0.17441 -4.29912,4.32243 -9.16602,9.99299 -13.6969,15.95863 -35.28041,39.63801 -37.62915,41.28313 -1.16292,0.81454 -1.91654,1.67442 -1.67473,1.91086 0.5209,0.5093 34.13142,2.31186 35.11619,1.88331 0.37209,-0.16192 1.88943,-5.57578 3.37186,-12.0308 z m 87.97262,1.02346 C 515.02218,898.87397 512,885.61728 512,882.04216 c 0,-2.39546 -1.25796,-2.6412 -2.96866,-0.57992 -1.5337,1.848 -11.28617,5.53776 -14.63695,5.53776 h -2.53058 l 1.9681,2.75 c 5.09549,7.11985 24.55763,25.1938 25.79569,23.95573 0.16953,-0.16953 -0.77844,-3.52017 -2.1066,-7.44588 z m -19.38022,-35.04512 c 6.59621,-7.07148 5.08022,-17.46349 -3.16996,-21.72982 -3.5815,-1.85206 -11.00065,-1.91711 -15.26856,-0.13387 -7.0925,2.96344 -12.56009,13.30905 -9.77954,18.50455 1.31456,2.45628 6.2164,6.03679 9.86864,7.20845 1.48975,0.47793 5.35949,0.73824 8.59942,0.57847 5.45967,-0.26924 6.17322,-0.59328 9.75,-4.42778 z M 896.69426,710.42585 C 911.6149,706.11928 923.49145,698.62319 937,684.98621 c 15.62869,-15.77727 21.40258,-32.12462 20.78548,-58.84892 l -0.28548,-12.3627 -6.11216,-2.2115 c -8.82979,-3.19478 -14.54147,-6.82787 -19.62731,-12.48455 -13.84058,-15.39405 -6.01656,-36.21803 18.23947,-48.54519 14.11788,-7.17485 41.81662,-15.04201 57.113,-16.22158 4.3379,-0.33451 7.887,-0.88757 7.887,-1.22901 0,-0.34145 -4.3875,-2.6005 -9.75,-5.02011 -16.46982,-7.43135 -60.97516,-29.53595 -75.75,-37.62298 -42.89205,-23.47703 -113.78843,-69.72075 -147,-95.88397 -4.95,-3.89948 -10.20752,-7.86049 -11.68338,-8.80224 l -2.68338,-1.71226 -1.08686,5.2294 c -2.11561,10.17915 -10.45521,21.162 -18.97687,24.99162 -4.18589,1.88113 -14.83509,2.61873 -17.15024,1.18789 -0.93719,-0.57922 -2.23153,0.78741 -6.81621,7.19685 -4.78467,6.68904 -8.62464,8.94237 -20.01249,11.7435 -6.32306,1.55532 -11.2694,3.36837 -12.60008,4.61847 -1.20485,1.1319 -4.10886,6.09446 -6.45336,11.02791 -4.06588,8.55571 -4.18896,9.0825 -2.66527,11.40794 3.25859,4.97323 14.37711,11.29739 25.77588,14.6612 6.38539,1.88435 10.44267,2.22397 30.85226,2.58256 13.48856,0.23699 24.68866,0.87607 26.29016,1.50013 2.96017,1.15349 9.70984,8.35721 9.70984,10.36302 0,2.33602 9.75367,16.08272 14.08895,19.8568 6.11127,5.32016 15.11163,9.36159 25.16442,11.29956 7.49735,1.44534 10.04892,1.48839 21.38,0.36072 14.34786,-1.42789 17.59462,-0.85726 19.55082,3.43614 1.01351,2.22442 0.78618,3.07638 -1.80445,6.7624 -4.39319,6.25075 -12.37441,11.33833 -22.60266,14.40793 -6.55433,1.96703 -10.34097,3.81882 -14.56684,7.12368 -7.2011,5.63164 -10.10737,6.8489 -22.05519,9.2375 -20.76393,4.15113 -20.2112,3.98108 -21.17437,6.5144 -0.49809,1.31007 -0.99598,14.65957 -1.10642,29.66556 -0.22196,30.1583 0.32022,34.57318 6.07996,49.50869 8.41089,21.81017 27.61662,41.71437 51.40376,53.2732 23.98542,11.65518 46.42404,14.46352 67.33628,8.42758 z M 2171.5,658.04044 c 60.7815,-3.93336 99.0469,-8.86909 152,-19.60595 23.3174,-4.72789 23.0214,-4.63064 22.8913,-7.52029 -0.1748,-3.88324 -2.6172,-17.35099 -3.2824,-18.09926 -0.3349,-0.37679 -7.8089,0.16291 -16.6089,1.19932 -46.0274,5.42085 -145.9056,12.34581 -196,13.58948 -13.2,0.32771 -25.35,0.72563 -27,0.88427 -1.65,0.15863 -21.5575,0.33873 -44.2388,0.40021 L 2018.0223,629 l -3.8913,7.75 c -3.9286,7.82423 -7.5096,17.20471 -6.8281,17.88624 0.8584,0.85843 35.765,3.41189 54.6971,4.00115 11.275,0.35094 20.7212,0.83477 20.9915,1.07518 0.8136,0.72356 72.3819,-0.62853 88.5085,-1.67213 z M 1566.3531,653.25 c 0.7219,-5.61483 -0.7937,-26.13547 -2.0093,-27.20446 -0.4641,-0.40812 -9.3938,-1.28293 -19.8438,-1.94402 -22.4341,-1.41922 -97.6755,-7.73132 -115,-9.6475 -2.2,-0.24333 -8.95,-0.90198 -15,-1.46366 -44.9426,-4.17248 -129.2084,-14.94227 -180.5,-23.06924 -26.7932,-4.24528 -86.1105,-15.6925 -96.5,-18.62283 -1.9564,-0.55178 -1.9595,-0.51868 -0.142,1.51691 2.2328,2.50078 25.5023,10.13823 72.229,23.70678 92.0086,26.71762 174.3116,43.41212 268.3679,54.43625 23.4626,2.75 69.3904,6.65601 81.1663,6.90293 L 1565.7423,658 Z M 2932,624.00088 c 15.675,-0.52891 31.2,-1.19592 34.5,-1.48225 3.3,-0.28632 12.525,-0.99105 20.5,-1.56607 30.2476,-2.18093 81.6181,-9.13619 96.75,-13.09937 l 4.25,-1.11311 v -15.70337 c 0,-8.63686 -0.2336,-15.93698 -0.5191,-16.22249 -0.2855,-0.28551 -3.998,0.0908 -8.25,0.83627 -19.1064,3.34972 -81.4016,10.6448 -122.2309,14.31383 -45.0937,4.05225 -57.3043,4.81064 -121,7.51515 -6.325,0.26856 -18.5595,0.49554 -27.1877,0.50441 l -15.6876,0.0161 -5.5533,10.9466 c -3.0543,6.02063 -5.216,11.155 -4.8039,11.40972 0.8391,0.5186 47.7768,3.52613 61.7325,3.95551 22.8502,0.70302 61.5225,0.5656 87.5,-0.31095 z M 2705,335.52237 c 0,-0.2627 -4.8375,-3.71575 -10.75,-7.67345 -5.9125,-3.95769 -14.5178,-10.0625 -19.1228,-13.56623 -4.605,-3.50374 -8.5935,-6.14969 -8.8633,-5.8799 -0.2698,0.2698 0.7979,2.72193 2.3728,5.44918 4.6473,8.04806 16.2898,16.06455 29.3633,20.21817 6.1766,1.9624 7,2.13322 7,1.45223 z m 752.818,-44.03775 c -1.5501,-1.55009 -19.2778,-13.35813 -19.5885,-13.04745 -0.203,0.20296 0.5668,2.20335 1.7105,4.44532 1.9964,3.91325 5.4698,6.48469 11.0535,8.18317 2.915,0.88671 7.5785,1.173 6.8245,0.41896 z m -33.48,-15.92297 c 0.3035,-0.79109 0.346,-2.70359 0.094,-4.25 -1.3292,-8.16591 -3.8101,-19.61305 -5.594,-25.81165 -1.108,-3.85 -2.4797,-8.6875 -3.0481,-10.75 -0.692,-2.5108 -1.6117,-3.75 -2.7832,-3.75 -3.1995,0 -10.0576,7.15167 -11.028,11.5 -2.1667,9.70973 6.1578,26.14552 16.521,32.61864 3.6028,2.25041 5.1008,2.36408 5.838,0.44301 z"
       id="path1" />
  </g>
</svg>
