<svg xmlns="http://www.w3.org/2000/svg" viewBox="0 0 540 120" fill="none">
  <g fill="#111111" stroke="#111111" stroke-linecap="round" stroke-linejoin="round">
    <g transform="translate(6 44)">
      <path d="M0 24c7-11 17-17 31-18h16c10 0 18 2 23 6l8 6 5 10H64l-6-4H42l-5 4H0Z"/>
      <circle cx="18" cy="10" r="6"/>
      <path d="M22 4c4-7 9-10 15-10 3 0 5 1 7 3-7 1-12 5-15 12"/>
      <path d="M73 27c3 10 7 17 14 21 5 3 11 4 19 3" stroke-width="5"/>
      <path d="M63 43h55" stroke-width="5"/>
      <path d="M112 44c5 0 9 3 11 8" stroke-width="5"/>
    </g>
    <g transform="translate(120 36)" stroke-width="5">
      <circle cx="22" cy="24" r="10" fill="#111111"/>
      <path d="M25 8c6-10 10-15 18-16M25 8c4-8 9-13 15-15"/>
      <path d="M14 32h22l16 6h24"/>
      <path d="M50 38 60 18l14-8"/>
      <path d="M19 40 11 61M27 40 36 67M56 41 47 61M63 41 75 66"/>
    </g>
    <g transform="translate(240 34)" stroke-width="5">
      <circle cx="22" cy="24" r="10" fill="#111111"/>
      <path d="M25 8c6-10 10-15 18-16M25 8c4-8 9-13 15-15"/>
      <path d="M14 32h22l16 6h24"/>
      <path d="M50 38 60 18l14-8"/>
      <path d="M19 40 10 60M27 40 37 66M56 41 49 60M63 41 76 65"/>
    </g>
    <g transform="translate(360 32)" stroke-width="5">
      <circle cx="22" cy="24" r="10" fill="#111111"/>
      <path d="M25 8c6-10 10-15 18-16M25 8c4-8 9-13 15-15"/>
      <path d="M14 32h22l16 6h24"/>
      <path d="M50 38 60 18l14-8"/>
      <path d="M19 40 9 58M27 40 38 65M56 41 48 59M63 41 77 64"/>
    </g>
    <path d="M102 60h18M222 58h18M342 56h18" stroke-width="4"/>
  </g>
</svg>
